<svg xmlns="http://www.w3.org/2000/svg" height="227.79" width="260.25" viewBox="0 0 260.24748 227.78228" fill="#40525900">
 <g transform="matrix(2.89 0 0 2.89 258.82 -1419.1)">
  <g>
   <path d="m0.14414 491.55h-89.359v78.127h89.359v-78.127z"/>
   <path fill="#e3d4ad" d="m97.184 13.066-22.37 0.018-45.433 71.885h35.851l-5.138-10.801 11.072-18.59c0.289 1.146 0.869 3.418 0.955 3.764-0.566 0.982-9.129 15.799-9.129 15.799l13.213-10.92c0.211 0.256 9.357 11.349 9.357 11.349s-4.301-14.363-4.591-15.34c0.218-0.351 1.655-2.646 2.566-4.103l3.914 18.082-7.824 10.762h33.633l-16.076-71.905zm-18.567 30.006h2.088l2.568 11.846h-11.714l7.058-11.846z" transform="translate(-116.18,481.71)"/>
   <g>
    <path d="m-38.983 496.14 0.96 1.47h16.658l14.754 66.23h-23.969l5.355-7.2412-7.6862-34.382-6.355-0.001-20.506 33.729 3.8262 7.87h-23.746l-2.3325 1.445h28.641l-4.5338-9.345 19.448-32.431h4.2362l7.3425 32.758-6.5962 9.0275 28.734-0.007-15.37-69.11-18.859-0.01z"/>
    <path fill="black" d="m-60.319 550.18-4.4162-10.505 14.068-8.8175-4.835-8.6675 13.606-6.5675-4.3888-7.7325 10.474-4.6562-3.825-5.625-0.8875-1.3025-43.692 68.928 21.416-13.482 2.4812-1.5712z"/>
   </g>
   <path fill="#a71930" d="m78.162 15.902 4.104 6.303-10.35 4.654 4.459 7.721-13.6 6.506 4.551 8.435-14.072 8.868 4.334 10.634-21.096 13.082h23.746l-3.826-7.871 20.506-33.728 6.355 0.002 7.686 34.383-5.355 7.24h23.966l-14.75-66.229h-16.658zm-5.285 40.477s0.661 2.602 0.811 3.182c-0.403 0.693-5.364 9.275-5.364 9.275s7.072-5.846 8.074-6.674c0.694 0.839 5.692 6.899 5.692 6.899s-2.473-8.261-2.709-9.047c0.366-0.588 2.273-3.635 2.273-3.635h-8.777z" transform="translate(-116.18,481.71)"/>
  </g>
 </g>
</svg>
