<?xml version="1.0" encoding="UTF-8" standalone="no"?>
<svg xmlns:rdf="http://www.w3.org/1999/02/22-rdf-syntax-ns#" xmlns="http://www.w3.org/2000/svg" height="198.24" width="147" version="1.1" xmlns:cc="http://creativecommons.org/ns#" xmlns:dc="http://purl.org/dc/elements/1.1/" viewBox="0 0 147 198.24236" >
 <g transform="translate(110.18 -427.33)">
  <g transform="translate(.36044 .36044)">
   <path d="m35.418 428.73h-144.04v195.28h144.04v-195.28z" fill="none" />
   <path d="m18.383 548.43c-1.734-5.08-2.331-14.86-12.091-21.62 9.76-6.75 10.357-16.53 12.091-21.61 2.816-8.25 4.686-13.31 10.682-16.88-21.37-12.37-11.052-23.62-28.771-41.34-15.305-15.3-39.361-16.51-56.042-3.63-4.611-5.1782-11.317-8.4336-18.781-8.4336-13.882 0-25.132 11.252-25.132 25.123 0 3.0051 0.51782 5.8852 1.4924 8.5587 2.3913-4.9659 7.1623-8.3521 12.646-8.3521 7.8837 0 14.278 6.9964 14.278 15.634v28.579c0 2.9935-1.0036 16.309-18.13 22.357 17.126 6.0481 18.13 19.36 18.13 22.362v28.579c0 8.6285-6.3943 15.634-14.278 15.634-5.4837 0-10.255-3.3862-12.646-8.3608-0.97456 2.6706-1.4924 5.5564-1.4924 8.5528 0 13.882 11.25 25.138 25.132 25.138 7.4648 0 14.17-3.2611 18.781-8.4365 16.681 12.873 40.737 11.663 56.041-3.6335 17.719-17.719 7.4008-28.972 28.771-41.347-5.9957-3.555-7.8663-8.6226-10.682-16.87" fill="#fff"/>
   <path d="m7.3075 584.06c-2.0189 5.923-3.9273 11.511-11.008 18.595-14.391 14.391-38.264 13.911-52.652-0.48001-3.0895 6.6968-10.327 10.895-18.176 10.895-9.5187 0-17.469-6.8597-19.154-15.901 2.4873 1.1986 5.2568 1.8648 8.1601 1.8648 10.985 0 19.925-9.5448 19.925-21.277v-28.579c0-4.9688-1.8997-15.043-11.686-22.362 9.7863-7.3164 11.686-17.394 11.686-22.357v-28.579c0-11.738-8.9397-21.283-19.925-21.283-2.9033 0-5.6728 0.6691-8.1601 1.8677 1.6844-9.0387 9.635-15.904 19.154-15.904 7.8488 0 15.087 4.195 18.176 10.895 14.389-14.391 38.261-14.866 52.652-0.47419 7.0808 7.0808 8.9892 12.675 11.008 18.592 2.1615 6.3564 4.4044 12.887 12.553 19.343-3.2844 4.096-4.9688 9.0299-6.819 14.458-0.40146 1.184-0.72437 2.4437-1.0676 3.7848-0.99201 3.9215-4.9164 14.234-13.376 19.657 8.4597 5.4197 12.384 15.735 13.376 19.654 0.34328 1.3411 0.66619 2.6124 1.0676 3.7877 1.8502 5.4313 3.5346 10.365 6.819 14.45-8.1485 6.467-10.391 12.995-12.553 19.354" fill="#bd3039"/>
   <path d="m-29.932 458.04c-8.7187 0-16.284 4.3124-20.109 10.646v40.228c3.8255 6.3303 11.391 10.646 20.109 10.646 12.582 0 22.773-8.997 22.773-20.087 0-3.9215-1.2738-7.585-3.4819-10.677 2.208-3.0895 3.4819-6.7468 3.4819-10.668 0-11.095-10.191-20.087-22.773-20.087zm0 76.033c-8.7187 0-16.284 4.3215-20.109 10.655v40.223c3.8255 6.3303 11.391 10.65 20.109 10.65 12.582 0 22.773-8.9974 22.773-20.096 0-3.9157-1.2738-7.5788-3.4819-10.668 2.208-3.0982 3.4819-6.7468 3.4819-10.668 0-11.095-10.191-20.096-22.773-20.096z" fill="#fff"/>
   <path d="m-29.932 463.69c-6.0743 0-11.424 2.6784-14.464 6.7046v36.805c3.04 4.0291 8.3896 6.7137 14.464 6.7137 9.4401 0 17.127-6.4875 17.127-14.441 0-4.227-2.1631-8.033-5.6046-10.677 3.4415-2.6473 5.6046-6.4472 5.6046-10.668 0-7.9623-7.6874-14.437-17.127-14.437zm0 76.033c-6.0743 0-11.424 2.68-14.464 6.7092v36.805c3.04 4.035 8.3896 6.7137 14.464 6.7137 9.4401 0 17.127-6.4804 17.127-14.446 0-4.2153-2.1631-8.0268-5.6046-10.668 3.4415-2.6444 5.6046-6.4472 5.6046-10.668 0-7.9594-7.6874-14.446-17.127-14.446z" fill="currentColor"/>
  </g>
 </g>
</svg>
