<?xml version="1.0" encoding="UTF-8" standalone="no"?>
<!-- Generator: Adobe Illustrator 13.0.1, SVG Export Plug-In . SVG Version: 6.00 Build 14948)  -->
<!DOCTYPE svg  PUBLIC '-//W3C//DTD SVG 1.1//EN'  'http://www.w3.org/Graphics/SVG/1.1/DTD/svg11.dtd'>
<svg id="Layer_1" xmlns="http://www.w3.org/2000/svg" y="0px" xml:space="preserve" height="197.5px" width="215.5px" version="1.1" x="0px" xmlns:xlink="http://www.w3.org/1999/xlink" viewBox="0 0 215.5 197.5" enable-background="new 0 0 215.5 197.5">
<rect y="-34.22" x="-32.932" fill="#40525900" width="296.27" height="260.87"/>
	<path d="m123.37 54.7c27.576 0 48.387 12.73 55.378 23.777h34.72c-0.631-1.26-2.187-5.472-2.187-5.472h-33.161c-6.989-11.048-28.759-23.778-56.34-23.778-46.901 0-65.304 31.172-65.304 46.103 0 8.646 2.518 16.251 6.802 22.729-2.804-5.268-3.466-13.203-3.466-18.337 0.002-14.933 17.711-45.023 63.558-45.023z"/>
	<path d="m120.55 169.29c-47.947 0-66.797-20.565-88.997-44.144-9.111-9.67-14.803-18.4-29.553-29.28l3.03 7.006c14.182 11.6 20.035 19.979 29.141 29.646 22.202 23.579 40.732 42.14 88.684 42.14 41.975 0 74.474-20.741 89.747-46.268l-2.295-5.37c-15.3 25.52-47.78 46.26-89.77 46.26z"/>
	<path d="m121.78 49.228c27.581 0 49.351 12.73 56.34 23.778h33.161c-15.378-30.368-55.072-48.667-94.77-48.667-38.99 0-68.784 22.487-85.88 42.74-16.58 19.633-24.2 25.928-27.111 27.904-1.066 0.726-1.519 0.887-1.519 0.887 14.75 10.877 20.442 19.608 29.551 29.276 22.2 23.578 41.05 44.144 88.997 44.144 41.989 0 74.478-20.741 89.759-46.267h-32.79c-15.345 11.65-34.132 21.05-58.021 21.05-22.055 0-45.101-9.203-56.218-26.015-4.284-6.478-6.802-14.082-6.802-22.729-0.001-14.932 18.401-46.103 65.3-46.103z" fill="#fff"/>
</svg>
