<svg xmlns="http://www.w3.org/2000/svg" height="248.61" width="182" viewBox="0 0 181.99999 248.6055" fill="#40525900">
 <path fill="#40525900" d="m45.383 247.71-44.037-44.037v-159.08l44.037-43.486h135.96v100.18h-58.349v-32.477l-9.3578-9.9083h-44.587l-9.3578 9.9083v111.19l9.3578 9.3578h44.587l9.3578-9.3578v-32.477h58.349v56.147l-44.037 44.037z"/>
 <path d="m133.46 237.25 37.431-37.431v-42.385h-37.431v26.972l-15.963 15.413h-52.844l-15.413-15.413v-120l15.413-15.413h52.844l15.963 15.413v26.972h37.431v-80.367h-37.431v8.8073l-8.8073-8.8073h-75.413l-37.431 37.982v150.83l37.431 37.431z" fill="#e31937"/>
</svg>
