<svg xmlns="http://www.w3.org/2000/svg" height="232" viewBox="0 0 224 232" width="224">
<rect width="224" height="232" fill="#40525900"/>
	<path d="m186.5 208.86c-7.336-7.277-20.658-45.398-31.789-47.955 4.098-2.03 29.767-7.926 29.968-35.66-0.017-29.984-27.743-39.782-55.506-39.875-5.902-0.024-16.66 0.38-27.598 0.996-13.88 0.817-21.004 1.433-31.595 2.269l-0.036 10.184c14.937 0.059 18.029 3.56 17.978 19.809l-0.063 19.452c-20.552-4.391-33.939-27.362-33.834-59.504 0.11-34.033 16.175-57.905 39.538-57.829 8.777 0.027 16.503 3.567 22.634 9.958 6.12 6.384 10.481 15.624 12.361 26.816l8.259 0.041-1.417-45.896-6.495-0.016c-0.718 2.193-1.594 3.067-3.182 3.06-4.39-0.003-14.72-6.622-33.511-6.7-20.383-0.058-37.793 7.337-49.962 20.466-12.337 13.374-19.428 31.561-19.503 53.512-0.044 15.153 4.283 32.285 14.258 45.938 9.95 13.651 26.088 23.578 49.632 23.663 0.404 0 0.784-0.03 1.184-0.036l-0.138 42.812c-0.06 15.835-3.543 19.063-18.121 19.011l-0.032 10.213 65.775 0.219 0.032-10.203c-13.544-0.041-18.555-2.012-18.512-18.067l0.1-29.065 9.191 0.032s33.691 57.397 34.636 57.397c2.393 0 40.475 0.109 40.475 0.109l0.033-10.127c0.01 0-7.65 1.21-14.75-5.01zm-69.54-53.02l0.022-7.179c0.66-0.021 1.328-0.058 1.973-0.058 2.111 0.017 4.031 0.017 5.618 0.475 1.754 0.217 3.509 0.664 5.083 1.33l0.54-1.533c5.14-14.908 9.406-31.16 10.857-43.654l-8.247-0.026c-4.233 11.231-9.503 19.628-15.759 25.233l0.122-34.685 8.489 0.024c16.846 0.068 25.649 11.367 25.599 28.516-0.08 22.35-9.14 32.07-34.29 31.56z" fill="#c4ced4"/>
	<path d="m65.9 21.644s-35.686 13.864-35.881 59.296c-0.192 46.554 34.185 55.466 34.185 55.466s-17.64-22.319-17.463-58.03c0.178-38.454 19.159-56.736 19.159-56.736" fill="#333366"/>
	<polyline points="94.719 213.42 95.108 97.153 110.09 96.177 109.7 213.48 94.719 213.42" fill="#333366"/>
	<path d="m175.83 125.81c0 22.837-27.945 28.495-27.945 28.495s10.356-6.182 10.423-28.308c0.085-22.321-9.766-28.661-9.766-28.661s27.31 2.567 27.3 28.481" fill="#333366"/>
	<path d="m148.27 163.18c7.573 3.839 18.314 20.774 24.067 34.598 6.17 12.504 10.606 16.063 10.606 16.063l-21.35-0.126s-19.192-34.587-28.028-46.969c0 0 6.51-1.028 9.715-1.931 2.88-0.8 4.99-1.63 4.99-1.63" fill="#333366"/>
</svg>
