<?xml version="1.0" encoding="UTF-8" ?>
<svg xmlns="http://www.w3.org/2000/svg" height="200" width="200" >
		<rect height="200" width="200" y="0" x="0" fill="#072854"/>
		<path d="m97.38942 21.947985-19.149086 58.432421h-61.232744l50.014212 36.290904-19.294398 58.49399 49.662016-36.32784 49.79994 36.35247-19.08751-58.39547 50.61269-36.414054h-62.61936z" fill="#f48412"/>
		<path d="m165.26708 84.752062h-50.46492l1.29302-4.371656-18.70576-58.432421v84.859395l-49.662016 68.35792 49.662016-36.32784 49.79994 36.35247-19.08751-58.39547 50.61269-36.414054z" fill="#ea5b18"/>
		<path d="m67.021802 116.67131 5.344504-1.73635-41.635409-29.776518-13.723307-4.778036z" fill="#ec6e1c"/>
		<path d="m134.61623 136.38686-2.53679-7.88129v6.98233z" fill="#072854"/>
		<path d="m60.194629 137.23656 2.528172-7.88129v6.98233z" fill="#072854"/>
		<path d="m51.636034 139.30541v13.9031h39.780842v-13.9031l-10.984556-3.92834v-16.87089h33.92652v16.87089l-10.98456 3.92834v13.9031h39.80054v-13.89079l-10.97224-3.92833v-51.573232l10.97224-3.928333v-13.927728h-39.80054v13.927728l10.98456 3.928333v16.870902h-33.938835v-16.870902l10.959927-3.928333v-13.915413h-8.509337-31.282587v13.927727l10.983324 3.916019v23.951752 5.35682 22.27697z" fill="#fff"/>
	<g fill="#cac9c9">
		<path d="m143.19945 79.875507v-13.917876l-3.53427 3.552741v7.865287l-10.97224 3.928333v56.572928l3.53427-2.49985v-22.26466-28.90219-0.406379l10.97224-3.928334z"/>
		<path d="m143.19945 139.30541-3.53427 2.48753v7.86898h-32.70737l-3.5589 3.54658h39.80054z"/>
		<path d="m80.456949 118.50617h7.696578 26.229933l3.54659-3.53427h-41.019685v22.89271l3.546584-2.47522v-6.23115-10.65207z"/>
		<path d="m91.42919 142.74116v-3.43575l-3.546583 2.47521v7.89362h-32.711073l-3.525648 3.53426h2.935783 8.493328 13.946199 14.407994v-10.46734z"/>
		<path d="m66.149933 81.328621-10.987019-3.928333-3.530574 2.499848 10.983325 3.928334 3.534268-2.499849z"/>
		<path d="m106.94549 77.387973-3.54658 2.499849 10.98455 3.928333 3.54659-2.487534-10.98456-3.940648z"/>
		<path d="m91.453819 79.875507v-13.911719l-3.546583 3.545352v7.866519l-10.972242 3.928333v22.905018l3.546584-3.53427v-16.870899l10.972241-3.928334z"/>
	</g>
	<path d="m157.93054 162.85746h-1.13625v-4.42275l-1.61808 4.42275h-1.09309l-1.55337-4.42275v4.42275h-1.14344v-5.559h1.97046l1.30166 3.63169 1.352-3.63169h1.95607v5.559zm-7.60856-4.56657h-1.68281v4.56657h-1.13625v-4.56657h-1.67561v-0.99243h4.49467v0.99243z" fill="#ea5b18"/>
</svg>
