<svg xmlns="http://www.w3.org/2000/svg" viewBox="0 0 200 192" width="200" height="192">
	<style>
		tspan { white-space:pre }
		.shp0 { fill: #000000 } 
		.shp1 { fill: #169fda } 
		.shp2 { fill: #41748f } 
		.shp3 { fill: #ee3543 } 
	</style>
	<g >
		<path fill="#40525900" d="M0 96L0 192L200 192L200 0L0 0L0 96Z" />
		<path class="shp1" d="M66.23 1.71C66.05 2.17 65.65 3.48 65.33 4.63C65.02 5.79 64.61 7.67 64.42 8.83C64.23 9.98 63.98 13.51 63.88 16.66C63.76 20.14 63.54 23.18 63.32 24.39C63.12 25.48 62.72 27.09 62.42 27.97C62.12 28.85 61.62 30.09 61.3 30.73C60.98 31.37 60.3 32.49 59.78 33.21C59.26 33.94 58.05 35.29 57.1 36.21C56.14 37.13 54.61 38.44 53.7 39.11C52.79 39.78 50.65 41.17 48.95 42.19C47.25 43.22 45.11 44.56 44.2 45.17C43.29 45.79 41.6 47.01 40.44 47.9C39.29 48.79 37.2 50.66 35.8 52.07C34.4 53.47 32.55 55.56 31.68 56.72C30.82 57.87 29.52 59.81 28.79 61.02C28.06 62.23 27.12 63.89 26.71 64.7L25.97 66.18C23.23 66.92 20.89 67.68 19.01 68.34C17.12 69.01 14.39 70.05 12.93 70.66C11.47 71.27 9.7 72.06 9.01 72.41C8.31 72.76 7.76 73.1 7.79 73.15C7.82 73.21 8.54 73.06 9.39 72.81C10.24 72.57 12.33 72.03 14.03 71.6C15.73 71.18 18.42 70.59 20 70.29C21.58 69.99 24.22 69.55 25.86 69.31C27.5 69.07 30.88 68.66 33.37 68.39C37.09 68 39.64 67.9 47.62 67.83L57.35 67.74C61.97 65.39 64.31 64.3 65.52 63.79C66.74 63.29 67.98 62.77 68.29 62.63L68.84 62.39C67.64 62.11 65.25 61.92 62.76 61.78C59.37 61.59 57.01 61.59 53.37 61.77C50.7 61.91 47.56 62.12 46.41 62.25C45.25 62.37 43.96 62.52 43.54 62.58C43.11 62.64 42.17 62.78 41.44 62.9C40.71 63.01 39.76 63.15 39.34 63.21C38.91 63.27 37.47 63.52 36.13 63.77C34.8 64.03 32.88 64.4 31.88 64.61C30.88 64.82 30.06 64.97 30.06 64.94C30.06 64.91 30.37 64.36 30.75 63.72C31.13 63.09 31.91 61.87 32.48 61.02C33.05 60.17 34.27 58.58 35.19 57.49C36.11 56.4 37.74 54.65 38.82 53.6C39.89 52.55 41.67 50.97 42.76 50.09C43.86 49.21 45.85 47.77 47.18 46.9C48.52 46.02 50.81 44.59 52.27 43.71C53.72 42.83 55.61 41.59 56.46 40.94C57.31 40.3 58.98 38.77 60.17 37.54C62.09 35.55 62.45 35.04 63.51 32.83C64.17 31.46 64.97 29.55 65.29 28.58C65.61 27.61 66.08 25.82 66.33 24.61C66.69 22.88 66.83 21.06 66.97 16.22C67.07 12.82 67.26 9.59 67.39 9.05C67.52 8.5 67.75 7.63 67.9 7.12L68.18 6.18C69 6.95 70.19 8.31 71.36 9.71C72.53 11.11 74.39 13.44 75.5 14.9C76.6 16.35 78.4 18.89 79.5 20.52C80.59 22.16 82.35 24.94 83.41 26.7C84.46 28.46 86.23 31.71 87.36 33.91L89.39 37.92C91.45 38.31 92.79 38.63 93.7 38.87C94.61 39.12 96.15 39.66 97.13 40.08C98.89 40.84 98.9 40.84 100.77 40.61C101.81 40.49 103.85 40.39 105.3 40.39C107.55 40.39 108.99 40.2 114.7 39.18C118.4 38.52 125.07 37.32 129.5 36.52C133.94 35.72 138.91 34.83 140.55 34.53C142.19 34.24 144.18 33.85 144.97 33.68C145.76 33.51 147.75 33.02 149.39 32.58C151.03 32.14 152.57 31.78 152.82 31.78C153.06 31.77 153.91 31.13 154.7 30.35C155.49 29.56 156.11 28.9 156.09 28.86C156.06 28.83 155.32 28.92 154.43 29.06C153.54 29.21 148.59 30.08 143.43 31.01C138.26 31.93 131 33.23 127.29 33.9C123.59 34.56 117.79 35.6 114.42 36.2C109.77 37.03 107.74 37.3 106.02 37.3C104.78 37.31 102.76 37.4 101.55 37.5C99.36 37.69 99.31 37.68 97.46 36.96C96.43 36.56 94.65 36 93.52 35.72L91.46 35.2C88.64 29.73 86.89 26.6 85.76 24.72C84.63 22.84 82.86 20.06 81.82 18.54C80.79 17.02 79.12 14.69 78.11 13.35C77.1 12.02 75.37 9.83 74.25 8.5C73.14 7.16 71.75 5.57 71.18 4.97C70.6 4.36 69.41 3.19 68.54 2.37C67.67 1.55 66.87 0.88 66.76 0.88C66.65 0.88 66.41 1.26 66.23 1.71Z" />
		<path class="shp0" d="M67.9 7.12C67.75 7.63 67.52 8.5 67.39 9.05C67.26 9.59 67.07 12.82 66.97 16.22C66.83 21.06 66.69 22.88 66.33 24.61C66.08 25.82 65.61 27.61 65.29 28.58C64.97 29.55 64.17 31.46 63.51 32.83C62.45 35.04 62.09 35.55 60.17 37.54C58.98 38.77 57.31 40.3 56.46 40.94C55.61 41.59 53.72 42.83 52.27 43.71C50.81 44.59 48.52 46.02 47.18 46.9C45.85 47.77 43.86 49.21 42.76 50.09C41.67 50.97 39.89 52.55 38.82 53.6C37.74 54.65 36.11 56.4 35.19 57.49C34.27 58.58 33.05 60.17 32.48 61.02C31.91 61.87 31.13 63.09 30.75 63.72C30.37 64.36 30.06 64.91 30.06 64.94C30.06 64.97 30.88 64.82 31.88 64.61C32.88 64.4 34.8 64.03 36.13 63.78C37.47 63.53 38.57 63.3 38.57 63.28C38.58 63.25 39.14 62.53 39.82 61.68C40.5 60.83 41.94 59.29 43.02 58.25C44.09 57.21 45.82 55.73 46.85 54.97C47.88 54.2 49.67 53.02 50.83 52.34C51.98 51.66 54.07 50.6 55.47 49.97C56.87 49.35 59.1 48.48 60.44 48.04C61.78 47.6 64.07 46.94 65.52 46.58C66.98 46.23 68.82 45.82 69.61 45.68C70.4 45.54 72.19 45.28 73.59 45.11C74.99 44.94 76.41 44.8 76.74 44.8C77.07 44.8 77.35 44.9 77.35 45.02C77.35 45.14 76.88 45.3 76.3 45.37C75.72 45.44 73.76 45.88 71.93 46.35C70.11 46.82 67.62 47.55 66.41 47.96C65.19 48.38 63.4 49.04 62.43 49.43C61.46 49.81 59.52 50.7 58.12 51.4C56.72 52.1 54.73 53.2 53.7 53.84C52.67 54.48 50.88 55.71 49.73 56.58C48.57 57.44 46.66 59.07 45.47 60.19C44.29 61.32 43.36 62.31 43.41 62.4C43.46 62.49 44.57 62.45 45.89 62.3C47.21 62.16 50.52 61.92 53.26 61.78C57.02 61.59 59.33 61.59 62.76 61.78C65.25 61.92 67.64 62.11 68.07 62.21L68.84 62.39C67.98 62.77 66.74 63.29 65.52 63.79C64.31 64.3 61.92 65.42 60.22 66.28C58.52 67.15 55.59 68.88 53.7 70.13L50.28 72.4C46.17 72.04 43.13 71.87 40.88 71.79L36.8 71.65C35.38 74.7 34.7 76.33 34.38 77.24C34.05 78.15 33.5 79.99 33.16 81.32C32.81 82.66 32.36 84.89 32.15 86.29C31.94 87.69 31.71 90.51 31.63 92.56C31.55 94.72 31.4 96.33 31.27 96.37C31.15 96.42 30.91 95.47 30.72 94.18C30.51 92.76 30.4 90.43 30.41 87.94C30.42 85.33 30.56 83.22 30.81 81.77C31.01 80.55 31.43 78.57 31.74 77.35C32.05 76.14 32.6 74.42 32.95 73.54C33.3 72.66 33.59 71.9 33.59 71.83C33.59 71.77 32.08 71.75 30.23 71.78L26.87 71.83C25.91 74.83 25.39 76.91 25.09 78.4C24.79 79.89 24.43 82.15 24.29 83.42C24.13 84.83 24.08 87.38 24.16 89.93C24.24 92.76 24.43 94.99 24.75 96.77C25.01 98.23 25.51 100.51 25.86 101.85C26.2 103.18 26.78 105.07 27.14 106.04C27.5 107.01 28.21 108.75 28.72 109.9C29.22 111.06 30.07 112.79 30.6 113.77C31.13 114.74 32.25 116.57 33.09 117.85C33.93 119.12 35.24 120.94 35.99 121.88C36.73 122.82 37.45 123.59 37.57 123.59C37.69 123.59 37.79 123.54 37.79 123.48C37.79 123.42 38.53 120.96 39.44 118.01C40.93 113.15 41.06 112.57 40.88 111.67C40.77 111.12 40.68 109.88 40.67 108.91C40.67 107.94 40.77 106.3 40.89 105.27C41.02 104.24 41.36 102.5 41.64 101.41C41.93 100.31 42.53 98.53 42.98 97.43C43.43 96.34 44.36 94.5 45.04 93.35C45.72 92.2 47.04 90.31 47.97 89.16C48.91 88.01 50.5 86.27 51.52 85.29C52.54 84.32 54.07 82.96 54.92 82.28C55.77 81.59 57.71 80.2 59.23 79.19C60.75 78.17 63.68 76.49 65.75 75.44C67.81 74.39 70.75 73.04 72.27 72.44C73.78 71.83 76.12 70.98 77.46 70.54C78.8 70.1 81.53 69.35 83.54 68.87C85.54 68.39 88.28 67.84 89.61 67.64C90.95 67.45 93.14 67.23 94.48 67.16L96.91 67.04C100.67 63.4 102.36 61.78 103.09 61.09L104.42 59.84C121.38 58.09 126.6 57.51 126.96 57.41L127.62 57.24C126.6 56.69 125.55 56.33 124.64 56.07C123.73 55.82 121.84 55.49 120.44 55.35C118.29 55.13 116.66 55.16 109.72 55.56C105.23 55.82 101.5 55.99 101.44 55.93C101.38 55.87 101.45 55.25 101.61 54.56C101.76 53.86 102.12 52.8 102.39 52.19C102.67 51.59 103.29 50.65 103.77 50.12C104.25 49.58 105.14 48.82 105.75 48.44C106.35 48.05 110.08 46.53 114.03 45.06C117.98 43.6 123.95 41.39 127.29 40.16C130.64 38.93 135.46 37.18 138.01 36.26C140.56 35.34 142.75 34.5 142.86 34.4C142.99 34.28 142.9 34.21 142.64 34.21C142.4 34.21 141.12 34.42 139.78 34.66C138.44 34.91 133.77 35.76 129.39 36.55C125.02 37.33 118.4 38.52 114.7 39.18C108.99 40.2 107.55 40.39 105.3 40.39C103.85 40.39 101.81 40.49 100.77 40.61C98.9 40.84 98.89 40.84 97.13 40.08C96.15 39.66 94.61 39.12 93.7 38.87C92.79 38.63 91.45 38.31 90.72 38.18L89.39 37.92C86.23 31.71 84.46 28.46 83.41 26.7C82.35 24.94 80.59 22.16 79.5 20.52C78.4 18.89 76.6 16.35 75.5 14.9C74.39 13.44 72.53 11.11 71.36 9.71C70.19 8.31 69 6.95 68.71 6.68L68.18 6.18L67.9 7.12Z" />
		<path class="shp1" d="M71.28 18.81C71.36 19.69 71.31 21.61 71.17 23.06C71.03 24.52 70.77 26.46 70.58 27.37C70.39 28.28 69.89 30.06 69.46 31.34C69.03 32.61 68.28 34.45 67.79 35.42C67.3 36.39 66.57 37.71 66.16 38.34C65.75 38.98 65.46 39.53 65.53 39.56C65.59 39.59 66.76 39.23 68.12 38.77C69.49 38.31 71.6 37.69 72.82 37.4C74.03 37.11 76.2 36.72 77.62 36.53C79.05 36.34 80.87 36.19 81.66 36.19C82.47 36.19 83.09 36.1 83.09 35.97C83.09 35.85 82.23 34.19 81.18 32.28C80.12 30.36 78.62 27.76 77.83 26.48C77.04 25.21 75.63 23.02 74.7 21.63C73.77 20.23 72.71 18.67 72.36 18.16C72 17.65 71.58 17.23 71.43 17.22C71.2 17.22 71.17 17.58 71.28 18.81Z" />
		<path class="shp2" d="M149.39 32.57C147.87 32.98 145.88 33.48 144.97 33.67C144.06 33.86 143.17 34.14 142.98 34.3C142.8 34.45 140.56 35.33 138.01 36.26C135.46 37.18 130.64 38.93 127.29 40.16C123.95 41.39 117.98 43.6 114.03 45.06C110.08 46.53 106.35 48.05 105.75 48.44C105.14 48.82 104.25 49.58 103.77 50.12C103.29 50.65 102.67 51.59 102.39 52.19C102.12 52.8 101.76 53.86 101.61 54.56C101.45 55.25 101.38 55.87 101.44 55.93C101.5 55.99 105.23 55.82 109.72 55.56C116.66 55.16 118.29 55.13 120.44 55.35C121.84 55.49 123.73 55.82 124.64 56.07C125.55 56.33 126.6 56.69 126.96 56.89L127.62 57.24C126.6 57.51 121.38 58.09 115.36 58.71L104.42 59.84C102.36 61.78 100.67 63.4 99.34 64.69L96.91 67.04C93.14 67.23 90.95 67.45 89.61 67.64C88.28 67.84 85.54 68.39 83.54 68.87C81.53 69.35 78.8 70.1 77.46 70.54C76.12 70.98 73.78 71.83 72.27 72.44C70.75 73.04 67.81 74.39 65.75 75.44C63.68 76.49 60.75 78.17 59.23 79.19C57.71 80.2 55.77 81.59 54.92 82.28C54.07 82.96 52.54 84.32 51.52 85.29C50.5 86.27 48.91 88.01 47.97 89.16C47.04 90.31 45.72 92.2 45.04 93.35C44.36 94.5 43.43 96.34 42.98 97.43C42.53 98.53 41.93 100.31 41.64 101.41C41.36 102.5 41.02 104.24 40.89 105.27C40.77 106.3 40.66 107.84 40.66 108.69C40.66 109.54 40.74 110.71 40.83 111.29C40.92 111.86 41.04 112.33 41.1 112.33C41.17 112.33 41.66 110.96 42.2 109.29C42.74 107.63 43.19 106.11 43.21 105.93C43.22 105.75 43.66 104.31 44.18 102.73C44.7 101.15 45.59 98.87 46.17 97.66C46.74 96.44 47.69 94.7 48.27 93.79C48.86 92.88 49.96 91.39 50.72 90.48C51.48 89.57 52.79 88.18 53.62 87.38C54.46 86.58 55.93 85.3 56.91 84.53C57.88 83.75 59.87 82.34 61.33 81.38C62.78 80.43 65.72 78.77 67.85 77.71C69.97 76.65 73.35 75.18 75.36 74.44C77.36 73.71 80.35 72.75 81.99 72.31C83.63 71.88 85.97 71.32 87.18 71.08C88.4 70.84 90.24 70.54 91.27 70.41C92.3 70.28 94.24 70.18 95.58 70.18L98.01 70.18C100.75 67.42 102.59 65.64 103.87 64.44L106.19 62.26C122.12 60.54 128.28 59.88 130.17 59.69C132.05 59.49 133.74 59.29 133.92 59.23C134.19 59.16 134.14 59.02 133.7 58.57C133.4 58.25 132.55 57.56 131.82 57.04C131.09 56.52 129.55 55.64 128.4 55.08C127.24 54.53 125.3 53.83 124.09 53.52C122.87 53.21 120.73 52.87 119.34 52.76C117.94 52.66 116.55 52.61 116.24 52.65C115.94 52.69 113.44 52.85 110.68 53.01C107.92 53.17 105.61 53.25 105.54 53.19C105.48 53.13 105.72 52.6 106.08 52.03C106.44 51.45 107.11 50.73 107.57 50.43C108.02 50.13 110.09 49.25 112.15 48.47C114.22 47.7 123.12 44.41 131.93 41.17C140.75 37.94 148.6 35.04 149.39 34.74C150.45 34.34 151.15 33.87 152.03 32.99C153.12 31.9 153.18 31.78 152.7 31.8C152.4 31.81 150.91 32.16 149.39 32.57Z" />
		<path class="shp1" d="M185.75 43.17C185.14 43.22 183.45 43.41 181.99 43.59C180.53 43.78 178.29 44.13 177.02 44.38C175.74 44.62 173.8 45.06 172.71 45.35C171.61 45.65 169.25 46.39 167.46 47C165.65 47.62 162.65 48.89 160.72 49.85C158.8 50.81 156.09 52.33 154.7 53.23C153.3 54.12 151.11 55.64 149.83 56.61C148.56 57.57 146.82 58.96 145.97 59.68C145.12 60.41 142.89 62.49 141.03 64.32C139.16 66.15 136.37 69.03 134.83 70.73C133.28 72.43 130.99 75.01 129.74 76.47C128.48 77.93 123.32 84.64 118.26 91.38C113.2 98.13 108.12 104.95 106.96 106.54C105.81 108.13 104.76 109.44 104.64 109.45C104.52 109.46 104.35 109.15 104.27 108.75C104.18 108.35 103.47 104.95 102.68 101.19C101.89 97.42 100.63 91.46 99.89 87.94C99.15 84.42 98.05 79.16 97.44 76.25C96.84 73.34 96.29 70.78 96.24 70.57C96.15 70.24 95.86 70.18 94.25 70.18C92.45 70.18 92.38 70.2 92.38 70.68C92.38 70.95 92.54 71.82 92.72 72.61C92.91 73.4 93.65 76.87 94.37 80.33C95.09 83.79 96.38 89.95 97.24 94.01C98.1 98.08 99.08 102.8 99.44 104.5C99.79 106.2 100.59 110.02 101.22 112.99C101.85 115.97 102.42 118.47 102.51 118.56C102.59 118.65 104.69 115.98 107.18 112.63C109.67 109.27 115.84 101.01 120.89 94.26C125.94 87.51 131.4 80.45 133.01 78.57C134.63 76.68 137.47 73.51 139.32 71.5C141.18 69.5 144.08 66.6 145.77 65.06C147.46 63.52 149.88 61.44 151.16 60.45C152.44 59.46 154.33 58.07 155.36 57.38C156.39 56.69 158.28 55.52 159.56 54.78C160.83 54.05 163.12 52.9 164.64 52.24C166.16 51.57 168.5 50.67 169.83 50.22C171.17 49.77 173.21 49.17 174.36 48.88C175.52 48.59 177.61 48.15 179.01 47.9C180.4 47.66 182.59 47.36 183.87 47.23C185.14 47.11 186.83 47 187.62 47L189.06 47.01C186.35 49.83 184.76 51.64 183.79 52.86C182.82 54.07 181.24 56.25 180.28 57.71C179.32 59.17 177.67 62.1 176.61 64.22C175.54 66.34 174.09 69.62 173.37 71.5C172.66 73.38 171.55 76.61 170.92 78.68C170.29 80.74 168.86 85.36 167.74 88.94C166.62 92.52 165.26 96.86 164.73 98.59C164.19 100.32 163.32 103.15 162.78 104.88C162.25 106.61 161.1 110.31 160.23 113.1C159.36 115.9 157.1 123.14 155.22 129.21C153.33 135.28 151.14 142.33 150.35 144.88C149.56 147.43 148.17 151.9 147.27 154.81C146.37 157.73 145.41 161.1 145.14 162.32C144.72 164.15 144.64 165.18 144.64 168.44L144.64 172.36C126.91 172.36 121.77 172.31 121.77 172.25C121.77 172.19 122.41 170.05 123.2 167.5C123.99 164.95 125.29 160.78 126.08 158.23C126.87 155.69 128.17 151.49 128.97 148.91C129.77 146.33 131.5 140.74 132.81 136.5C134.13 132.25 136.66 124.06 138.45 118.29C140.23 112.52 142.33 105.75 143.11 103.23C143.89 100.71 145.19 96.54 145.99 93.96C146.79 91.38 147.73 88.33 148.08 87.17C148.43 86.02 148.66 85.03 148.61 84.97C148.55 84.9 148.41 84.95 148.31 85.08C148.2 85.2 139.58 96.77 129.16 110.79C118.73 124.81 106.33 141.49 101.59 147.86C96.85 154.23 92.94 159.5 92.9 159.56C92.85 159.62 92.77 159.62 92.71 159.56C92.66 159.5 91.95 156.32 91.14 152.5C90.33 148.67 89.11 142.86 88.42 139.59C87.53 135.34 87.08 133.63 86.87 133.63C86.71 133.63 85.99 134.47 85.29 135.5L84.01 137.38C86.36 148.5 87.8 155.3 88.72 159.67C89.64 164.04 90.46 167.9 90.55 168.24C90.71 168.83 91.12 168.33 97.18 160.18C100.74 155.41 109.97 143.01 117.69 132.63C125.41 122.26 131.83 113.74 131.94 113.71C132.06 113.68 132.15 113.56 132.15 113.43C132.15 113.31 133.45 111.48 135.03 109.35C136.61 107.23 138 105.54 138.12 105.6C138.27 105.67 138.27 105.92 138.13 106.32C138.01 106.65 137.53 108.22 137.05 109.79C136.56 111.37 135.32 115.39 134.29 118.73C133.25 122.07 131.3 128.38 129.95 132.74C128.6 137.11 126.04 145.36 124.28 151.06C122.51 156.77 120.44 163.47 119.66 165.96C118.89 168.45 117.86 171.75 117.36 173.3L116.46 176.11L149.94 176.1C148.66 172.22 148.42 171.03 148.34 169.6C148.28 168.51 148.35 166.72 148.49 165.63C148.64 164.54 148.94 162.9 149.17 161.99C149.4 161.08 150.25 158.2 151.06 155.59C151.86 152.98 153.15 148.81 153.92 146.32C154.69 143.83 155.82 140.2 156.42 138.26C157.03 136.32 159.09 129.72 160.99 123.59C162.9 117.46 165.09 110.41 165.86 107.92C166.63 105.43 168.41 99.72 169.8 95.23C171.2 90.74 173.04 84.83 173.89 82.1C174.74 79.37 175.81 76.09 176.25 74.81C176.69 73.54 177.46 71.55 177.94 70.4C178.43 69.25 179.54 66.91 180.41 65.21C181.28 63.51 182.85 60.83 183.9 59.26C184.95 57.68 186.6 55.44 187.57 54.29C188.54 53.14 190.17 51.4 191.19 50.42C192.21 49.45 193.98 47.91 195.14 46.99C196.29 46.08 197.66 45.04 198.17 44.68C198.69 44.32 199.11 43.98 199.11 43.92C199.12 43.86 198.25 43.68 197.19 43.52C196.12 43.36 193.36 43.2 191.05 43.16C188.74 43.12 186.35 43.12 185.75 43.17Z" />
		<path class="shp3" d="M73.92 45.05C73.07 45.15 71.43 45.39 70.28 45.58C69.12 45.77 66.98 46.22 65.52 46.58C64.07 46.94 61.78 47.6 60.44 48.04C59.1 48.48 56.87 49.35 55.47 49.97C54.07 50.6 51.98 51.66 50.83 52.34C49.67 53.02 47.91 54.18 46.91 54.93C45.9 55.67 44.32 57 43.39 57.88C42.46 58.76 41.02 60.27 40.19 61.24C39.36 62.21 38.76 63.07 38.84 63.15C38.93 63.23 39.9 63.15 40.99 62.98L42.98 62.66C46.58 59.16 48.57 57.44 49.72 56.57C50.88 55.71 52.67 54.48 53.7 53.84C54.73 53.2 56.72 52.1 58.12 51.4C59.52 50.7 61.46 49.81 62.43 49.43C63.4 49.04 65.19 48.38 66.41 47.96C67.62 47.55 70.11 46.82 71.93 46.35C73.76 45.88 75.72 45.44 76.3 45.37C76.88 45.3 77.35 45.14 77.35 45.02C77.35 44.9 76.93 44.81 76.41 44.83C75.89 44.84 74.77 44.94 73.92 45.05Z" />
		<path class="shp0" d="M183.43 47.26C182.39 47.36 180.4 47.65 179.01 47.9C177.61 48.15 175.52 48.59 174.36 48.88C173.21 49.17 171.17 49.77 169.83 50.22C168.5 50.67 166.16 51.57 164.64 52.24C163.12 52.9 160.83 54.05 159.56 54.78C158.28 55.52 156.39 56.69 155.36 57.38C154.33 58.07 152.44 59.46 151.16 60.45C149.88 61.44 147.46 63.52 145.77 65.06C144.08 66.6 141.18 69.5 139.32 71.5C137.47 73.51 134.63 76.68 133.01 78.57C131.4 80.45 125.94 87.51 120.89 94.26C115.84 101.01 109.67 109.27 107.18 112.63C104.69 115.98 102.59 118.65 102.5 118.56C102.42 118.47 101.65 115.02 100.79 110.9C99.93 106.77 99.03 102.5 98.79 101.41C98.54 100.31 97.8 96.79 97.13 93.57C96.47 90.36 95.22 84.4 94.36 80.33C93.5 76.26 92.68 72.35 92.53 71.64L92.27 70.34C90.21 70.54 88.57 70.8 87.29 71.05C86.02 71.31 83.63 71.88 81.99 72.31C80.35 72.75 77.36 73.71 75.36 74.44C73.35 75.18 69.97 76.65 67.85 77.71C65.72 78.77 62.78 80.43 61.33 81.38C59.87 82.34 57.88 83.75 56.91 84.53C55.93 85.3 54.46 86.58 53.62 87.38C52.79 88.18 51.48 89.57 50.72 90.48C49.96 91.39 48.86 92.88 48.27 93.79C47.69 94.7 46.74 96.44 46.17 97.66C45.59 98.87 44.67 101.25 44.11 102.95C43.56 104.65 43.16 106.09 43.24 106.15C43.31 106.21 43.43 106.11 43.5 105.93C43.57 105.75 44.23 104.61 44.97 103.39C45.71 102.18 47 100.24 47.83 99.09C48.67 97.94 49.85 96.41 50.47 95.69C51.09 94.98 52.5 93.6 53.59 92.64C54.69 91.67 55.61 90.96 55.65 91.07C55.69 91.17 55.23 92.89 54.62 94.9C54.02 96.9 52.28 102.56 50.76 107.48C49.24 112.39 47.34 118.52 46.54 121.1C45.74 123.68 44.43 127.9 43.63 130.48C42.83 133.06 41.28 138.05 40.19 141.57C39.09 145.09 37.71 149.51 37.13 151.39C36.54 153.27 35.36 157.07 34.5 159.83C33.63 162.6 32.55 165.87 32.08 167.12C31.61 168.36 30.65 170.52 29.95 171.92C29.24 173.31 28.17 175.25 27.57 176.22C26.96 177.19 25.94 178.68 25.3 179.53C24.66 180.38 23.98 181.22 23.77 181.41C23.57 181.59 23.41 181.84 23.42 181.96C23.43 182.1 24.24 182.05 25.58 181.82C26.77 181.62 28.63 181.24 29.72 180.97C30.82 180.7 32.61 180.18 33.7 179.81C34.8 179.45 36.64 178.71 37.79 178.17C38.94 177.63 40.83 176.56 41.99 175.79C43.14 175.02 44.91 173.56 45.91 172.54C46.91 171.53 48.29 169.96 48.97 169.05C49.65 168.14 50.71 166.55 51.32 165.52C51.93 164.49 52.78 162.95 53.2 162.1C53.63 161.25 54.47 159.36 55.07 157.9C55.67 156.45 56.69 153.52 57.34 151.39C57.99 149.27 59.22 145.25 60.08 142.46C60.93 139.66 62.72 133.8 64.06 129.43C65.39 125.06 67.25 119.01 68.18 115.97C69.11 112.94 70.55 108.22 71.38 105.49C72.21 102.76 73.8 97.54 74.92 93.9C76.03 90.26 77.03 87.18 77.15 87.06C77.29 86.91 77.35 86.91 77.35 87.06C77.35 87.18 77.7 88.92 78.13 90.92C78.56 92.93 79.4 96.9 80 99.75C80.6 102.6 81.74 108.02 82.53 111.78C83.32 115.54 84.02 118.79 84.08 119.01C84.17 119.29 83.88 119.62 83.04 120.2C82.4 120.65 80.34 122.31 78.45 123.89C76.57 125.47 74.38 127.36 73.59 128.07C72.8 128.79 71.51 129.81 70.72 130.35C69.93 130.88 68.83 131.46 68.29 131.64L67.29 131.96C64.95 139.58 64.16 142.19 64.04 142.68C63.85 143.44 63.89 143.72 64.39 144.77C64.7 145.44 65.16 146.78 65.41 147.75C65.66 148.72 66.01 151.3 66.2 153.49C66.38 155.67 66.63 158.46 66.75 159.67C66.88 160.88 67.28 163.96 67.64 166.51C68 169.06 68.55 172.19 68.85 173.46C69.15 174.74 69.66 176.57 69.98 177.54C70.3 178.52 70.95 180.15 71.43 181.19C71.91 182.22 72.72 183.66 73.25 184.39C73.77 185.11 74.66 186.13 75.22 186.65C75.78 187.16 76.54 187.74 76.91 187.92C77.27 188.1 77.61 188.22 77.67 188.19C77.72 188.16 77.43 187.24 77.02 186.15C76.61 185.06 76.02 183.27 75.7 182.18C75.38 181.09 74.93 179.05 74.68 177.66C74.44 176.26 74.14 173.03 74.01 170.48C73.89 167.93 73.82 161.68 73.85 156.58L73.92 147.31C76.03 143.89 76.75 142.5 76.87 142.01C76.99 141.53 77.17 140.34 77.25 139.37C77.34 138.39 77.5 137.35 77.61 137.05C77.73 136.74 78.53 135.5 79.39 134.29C80.25 133.08 81.71 131.14 82.63 129.99C83.55 128.83 85.8 126.36 87.62 124.5C89.45 122.64 91.54 120.66 92.27 120.12C92.99 119.57 94.09 118.87 94.7 118.57C95.3 118.26 96.17 117.87 96.63 117.71C97.28 117.47 97.46 117.47 97.45 117.68C97.45 117.83 96.93 118.31 96.31 118.73C95.68 119.16 94.36 120.3 93.38 121.27C92.4 122.24 90.2 124.62 88.5 126.57C86.8 128.51 84.81 130.89 84.07 131.86C83.34 132.83 82.15 134.47 81.43 135.5L80.13 137.38C81.25 142.85 81.62 144.49 81.68 144.55C81.74 144.61 81.88 144.51 81.99 144.33C82.09 144.15 82.29 143.28 82.42 142.4C82.55 141.52 82.65 140.48 82.64 140.08C82.64 139.61 82.92 138.95 83.45 138.15C83.9 137.48 84.8 136.17 85.45 135.23C86.1 134.29 86.75 133.55 86.91 133.59C87.08 133.64 87.66 135.94 88.43 139.61C89.11 142.87 90.33 148.67 91.14 152.5C91.95 156.32 92.66 159.5 92.71 159.56C92.77 159.62 92.85 159.62 92.9 159.56C92.94 159.5 96.85 154.23 101.59 147.86C106.33 141.49 118.73 124.81 129.16 110.79C139.58 96.77 148.2 85.2 148.31 85.08C148.41 84.95 148.55 84.9 148.61 84.97C148.66 85.03 148.43 86.02 148.08 87.17C147.73 88.33 146.79 91.38 145.99 93.96C145.19 96.54 143.89 100.71 143.11 103.23C142.33 105.75 140.23 112.52 138.45 118.29C136.66 124.06 134.13 132.25 132.81 136.5C131.5 140.74 129.77 146.33 128.97 148.91C128.17 151.49 126.87 155.69 126.08 158.23C125.29 160.78 123.99 164.95 123.2 167.5C122.41 170.05 121.77 172.19 121.77 172.25C121.77 172.31 126.91 172.36 133.2 172.36L144.64 172.36C144.64 165.18 144.72 164.15 145.14 162.32C145.41 161.1 146.37 157.73 147.27 154.81C148.17 151.9 149.56 147.43 150.35 144.88C151.14 142.33 153.33 135.28 155.22 129.21C157.1 123.14 159.36 115.9 160.23 113.1C161.1 110.31 162.25 106.61 162.78 104.88C163.32 103.15 164.19 100.32 164.73 98.59C165.26 96.86 166.62 92.52 167.74 88.94C168.86 85.36 170.29 80.74 170.92 78.68C171.55 76.61 172.66 73.38 173.37 71.5C174.09 69.62 175.54 66.34 176.61 64.22C177.67 62.1 179.32 59.17 180.28 57.71C181.24 56.25 182.82 54.07 183.79 52.86C184.76 51.64 186.35 49.83 187.31 48.83L189.06 47.01C186.15 47.05 184.46 47.15 183.43 47.26Z" />
		<path class="shp3" d="M161.2 49.02C160.24 49.37 157.76 50.5 155.69 51.52C153.62 52.54 150.14 54.5 147.95 55.88C145.76 57.25 142.83 59.23 141.43 60.28C140.04 61.32 138 62.95 136.91 63.89C135.81 64.83 133.52 67.01 131.82 68.73C130.12 70.44 127.67 73.08 126.37 74.6C125.07 76.11 123.33 78.2 122.49 79.23C121.65 80.26 117.05 86.42 112.27 92.91C107.48 99.4 103.56 104.87 103.56 105.05C103.56 105.23 103.75 106.3 103.99 107.42C104.23 108.55 104.52 109.46 104.64 109.45C104.76 109.44 105.81 108.13 106.96 106.54C108.12 104.95 113.2 98.13 118.26 91.38C123.32 84.64 128.48 77.93 129.74 76.47C130.99 75.01 133.28 72.43 134.83 70.73C136.37 69.03 139.16 66.15 141.03 64.32C142.89 62.49 145.12 60.41 145.97 59.68C146.82 58.96 148.56 57.57 149.83 56.61C151.11 55.64 153.3 54.12 154.7 53.23C156.09 52.33 158.53 50.95 160.11 50.16C161.69 49.37 163.03 48.68 163.09 48.64C163.15 48.59 163.15 48.51 163.08 48.47C163.01 48.42 162.16 48.67 161.2 49.02Z" />
		<path class="shp2" d="M98.45 50.53C97.48 51.02 96.1 51.93 95.37 52.57C94.65 53.21 93.73 54.26 93.33 54.9C92.93 55.53 92.6 56.15 92.6 56.28C92.6 56.4 93.21 56.5 93.98 56.5C94.74 56.5 95.98 56.42 96.73 56.33L98.11 56.17C98.33 54.8 98.64 53.7 98.93 52.86C99.22 52.01 99.7 50.99 100 50.59C100.31 50.2 100.55 49.83 100.55 49.77C100.55 49.7 100.48 49.66 100.39 49.66C100.3 49.66 99.43 50.05 98.45 50.53ZM39.45 67.91C38.72 67.95 36.03 68.18 33.48 68.43C30.93 68.67 27.5 69.07 25.86 69.31C24.22 69.55 21.53 70 19.89 70.31C18.25 70.62 15.17 71.32 13.04 71.87C10.91 72.42 8.95 72.91 8.67 72.96C8.4 73.01 8.18 73.15 8.18 73.27C8.18 73.39 8.45 73.44 8.78 73.38C9.12 73.33 10.59 73.13 12.04 72.95C13.5 72.77 15.89 72.52 17.35 72.39C18.81 72.26 21.49 72.06 23.31 71.94C25.14 71.82 30.81 71.76 35.91 71.81C41.02 71.86 46.34 72.01 47.73 72.15L50.28 72.41C55.24 69.09 56.71 68.04 56.74 67.94C56.77 67.84 53.19 67.77 48.78 67.79C44.38 67.82 40.18 67.87 39.45 67.91Z" />
		<path class="shp1" d="M24.7 71.87L23.65 71.94C22.91 74.42 22.42 76.54 22.07 78.23C21.72 79.95 21.32 82.9 21.18 84.86C20.97 87.58 20.97 89.13 21.18 91.64C21.32 93.43 21.69 96.11 22.01 97.6C22.33 99.09 22.83 101.15 23.13 102.18C23.43 103.21 24.08 105.1 24.58 106.37C25.08 107.65 26.13 109.93 26.9 111.45C27.68 112.97 29.04 115.3 29.92 116.63C30.8 117.97 32.33 120.06 33.32 121.27C34.31 122.48 35.56 123.97 36.1 124.58L37.09 125.68L37.62 123.92C35.29 121.01 33.93 119.12 33.09 117.85C32.25 116.57 31.13 114.74 30.6 113.77C30.07 112.79 29.22 111.06 28.72 109.9C28.21 108.75 27.5 107.01 27.14 106.04C26.78 105.07 26.2 103.18 25.86 101.85C25.51 100.51 25 98.18 24.72 96.66C24.28 94.24 24.21 93.21 24.22 88.28C24.23 83.11 24.28 82.4 24.81 79.67C25.13 78.03 25.66 75.8 25.99 74.7C26.31 73.61 26.61 72.49 26.66 72.22C26.72 71.82 26.64 71.73 26.24 71.76C25.97 71.79 25.27 71.84 24.7 71.87Z" />
		<path class="shp3" d="M32.87 73.77C32.44 74.89 31.84 76.9 31.53 78.23C31.22 79.57 30.84 81.46 30.69 82.43C30.54 83.4 30.41 85.93 30.4 88.06C30.4 90.39 30.52 92.81 30.72 94.18C30.91 95.47 31.15 96.42 31.27 96.37C31.4 96.33 31.55 94.72 31.63 92.56C31.71 90.51 31.94 87.69 32.15 86.29C32.36 84.89 32.82 82.61 33.19 81.21C33.55 79.82 34.2 77.73 34.63 76.58C35.06 75.43 35.7 73.91 36.05 73.21C36.4 72.52 36.69 71.9 36.69 71.83C36.69 71.77 36 71.72 35.16 71.72L33.64 71.72L32.87 73.77Z" />
		<path class="shp1" d="M77.08 87.1C77.01 87.2 76.04 90.26 74.92 93.9C73.8 97.54 72.21 102.76 71.38 105.49C70.55 108.22 69.11 112.94 68.18 115.97C67.25 119.01 65.39 125.06 64.06 129.43C62.72 133.8 61.1 139.12 60.45 141.24C59.8 143.37 58.57 147.39 57.71 150.18C56.86 152.97 55.67 156.45 55.07 157.9C54.47 159.36 53.63 161.25 53.2 162.1C52.78 162.95 51.93 164.49 51.32 165.52C50.71 166.55 49.65 168.14 48.97 169.05C48.29 169.96 46.91 171.53 45.91 172.54C44.91 173.56 43.14 175.02 41.99 175.79C40.83 176.56 38.94 177.63 37.79 178.17C36.64 178.71 34.8 179.45 33.7 179.81C32.61 180.18 30.82 180.7 29.72 180.97C28.63 181.24 26.77 181.62 25.58 181.82C24.24 182.05 23.43 182.1 23.42 181.96C23.41 181.84 23.57 181.59 23.77 181.41C23.98 181.22 24.66 180.38 25.3 179.53C25.94 178.68 26.96 177.19 27.57 176.22C28.17 175.25 29.24 173.31 29.95 171.92C30.65 170.52 31.61 168.36 32.08 167.12C32.55 165.87 33.63 162.6 34.5 159.83C35.36 157.07 36.54 153.27 37.13 151.39C37.71 149.51 39.09 145.09 40.19 141.57C41.28 138.05 42.83 133.06 43.63 130.48C44.43 127.9 45.74 123.68 46.54 121.1C47.34 118.52 49.24 112.39 50.76 107.48C52.28 102.56 54.02 96.9 54.62 94.9C55.23 92.89 55.69 91.17 55.65 91.06C55.61 90.96 54.59 91.75 53.38 92.83C52.17 93.91 50.9 95.18 50.56 95.67C50.21 96.15 49.93 96.68 49.94 96.83C49.94 96.98 48.69 101.15 47.16 106.1C45.63 111.04 43.73 117.18 42.94 119.72C42.15 122.27 41.08 125.75 40.55 127.45C40.03 129.15 38.49 134.11 37.13 138.48C35.77 142.85 33.92 148.81 33.01 151.72C32.1 154.64 30.66 159.16 29.82 161.77C28.81 164.89 27.79 167.53 26.83 169.49C26.03 171.13 24.83 173.31 24.15 174.34C23.48 175.38 22.3 176.97 21.54 177.88C20.78 178.79 19.23 180.43 18.09 181.52C16.95 182.62 15.18 184.21 14.15 185.06L12.29 186.59C15.01 186.71 17.19 186.62 18.9 186.49C20.6 186.35 23.08 186.09 24.42 185.91C25.76 185.73 27.99 185.32 29.39 185.01C30.79 184.7 33.13 184.05 34.59 183.57C36.04 183.09 38.08 182.3 39.12 181.82C40.15 181.33 41.79 180.45 42.76 179.86C43.73 179.27 45.33 178.15 46.3 177.37C47.27 176.59 48.66 175.31 49.39 174.53C50.12 173.76 51.28 172.38 51.96 171.47C52.65 170.56 53.83 168.78 54.6 167.5C55.36 166.23 56.45 164.19 57.03 162.98C57.6 161.77 58.52 159.63 59.06 158.23C59.61 156.84 60.59 153.93 61.25 151.78C61.9 149.63 62.51 147.86 62.6 147.86C62.69 147.86 62.86 148.38 62.98 149.02C63.1 149.66 63.44 152.51 63.75 155.37C64.06 158.22 64.55 162.69 64.84 165.3C65.14 167.91 65.63 171.28 65.94 172.8C66.25 174.32 66.84 176.55 67.25 177.77C67.67 178.98 68.28 180.57 68.61 181.3C68.93 182.02 69.63 183.27 70.16 184.06C70.68 184.84 71.85 186.18 72.75 187.03C73.66 187.89 74.99 188.87 75.71 189.22C76.43 189.57 77.51 190.03 78.12 190.23C78.73 190.44 79.6 190.67 80.06 190.75C80.51 190.83 80.89 190.82 80.89 190.73C80.89 190.64 80.56 190.37 80.17 190.13C79.77 189.89 79.15 189.43 78.78 189.11C78.42 188.79 77.7 188.32 77.18 188.06C76.67 187.8 75.78 187.16 75.22 186.65C74.66 186.13 73.77 185.11 73.25 184.39C72.72 183.66 71.91 182.22 71.43 181.19C70.95 180.15 70.3 178.52 69.98 177.54C69.66 176.57 69.15 174.74 68.85 173.46C68.55 172.19 68 169.06 67.64 166.51C67.28 163.96 66.88 160.88 66.75 159.67C66.63 158.46 66.38 155.67 66.2 153.49C66.01 151.3 65.66 148.72 65.41 147.75C65.16 146.78 64.7 145.44 64.39 144.77C63.89 143.72 63.85 143.44 64.04 142.68C64.16 142.19 64.95 139.58 65.78 136.88L67.29 131.96C68.83 131.46 69.93 130.88 70.72 130.35C71.51 129.81 72.8 128.79 73.59 128.07C74.38 127.36 76.57 125.47 78.45 123.89C80.34 122.31 82.4 120.65 83.04 120.2C83.68 119.76 84.15 119.27 84.1 119.12C84.04 118.97 83.4 115.96 82.67 112.44C81.93 108.92 80.73 103.21 80 99.75C79.27 96.29 78.36 92.02 77.99 90.26C77.62 88.5 77.29 87.03 77.26 86.99C77.23 86.95 77.15 87 77.08 87.1Z" />
		<path class="shp3" d="M48.59 98.04C47.85 99.04 46.72 100.66 46.08 101.63C45.45 102.6 44.5 104.14 43.98 105.05C43.4 106.08 42.55 108.21 41.76 110.68C41.05 112.86 39.81 116.78 39.01 119.39C38.2 122 36.96 125.98 36.24 128.22C35.53 130.47 34.09 135.08 33.03 138.48C31.98 141.88 29.79 148.93 28.16 154.15C26.53 159.37 24.93 164.34 24.61 165.19C24.29 166.04 23.64 167.5 23.17 168.44C22.7 169.38 21.89 170.82 21.36 171.64C20.83 172.46 19.77 173.93 19 174.9C18.23 175.87 16.75 177.51 15.71 178.54C14.66 179.57 12.82 181.25 11.6 182.27C10.39 183.29 7.47 185.57 5.13 187.34C2.79 189.11 0.87 190.64 0.88 190.73C0.88 190.82 3.05 190.9 5.69 190.9C8.33 190.9 11.79 190.8 13.37 190.68C14.95 190.56 17.14 190.35 18.23 190.22C19.33 190.09 21.31 189.79 22.65 189.54C23.99 189.29 26.23 188.8 27.62 188.44C29.02 188.08 31.26 187.35 32.6 186.83C33.93 186.31 35.77 185.5 36.69 185.05C37.6 184.59 39.19 183.69 40.22 183.05C41.25 182.41 43.09 181.06 44.29 180.05C45.5 179.03 46.89 177.72 47.39 177.13C47.88 176.53 48.64 175.64 49.06 175.14C49.65 174.45 49.5 174.54 48.4 175.56C47.6 176.29 46.36 177.34 45.63 177.9C44.9 178.46 43.61 179.35 42.76 179.87C41.91 180.39 40.32 181.24 39.23 181.76C38.13 182.28 36.04 183.09 34.59 183.57C33.13 184.05 30.79 184.7 29.39 185.01C27.99 185.32 25.76 185.73 24.42 185.91C23.08 186.09 20.6 186.35 18.9 186.49C17.19 186.62 15.01 186.71 14.04 186.67L12.29 186.59C15.18 184.21 16.95 182.62 18.09 181.52C19.23 180.43 20.78 178.79 21.54 177.88C22.3 176.97 23.48 175.38 24.15 174.34C24.83 173.31 26.03 171.13 26.83 169.49C27.79 167.53 28.81 164.89 29.82 161.77C30.66 159.16 32.1 154.64 33.01 151.72C33.92 148.81 35.77 142.85 37.13 138.48C38.49 134.11 40.03 129.15 40.55 127.45C41.08 125.75 42.15 122.27 42.94 119.72C43.73 117.18 45.57 111.22 47.03 106.48C48.49 101.75 49.78 97.5 49.89 97.05C50 96.59 50.06 96.22 50.02 96.22C49.98 96.22 49.34 97.04 48.59 98.04ZM76.07 103.23C75.95 103.68 75.49 105.22 75.05 106.65L74.25 109.24C75.43 114.97 76.03 117.8 76.34 119.23C76.65 120.65 76.91 121.87 76.91 121.93C76.91 121.99 77.52 121.57 78.28 120.99C79.03 120.42 79.78 119.85 79.94 119.72C80.19 119.54 79.96 118.19 78.7 112.22C77.86 108.22 77.07 104.37 76.96 103.67C76.85 102.97 76.65 102.4 76.52 102.4C76.39 102.4 76.19 102.77 76.07 103.23ZM135.08 109.29L132.24 113.1C130.32 119.26 128.95 123.63 127.96 126.79C126.97 129.94 125.62 134.21 124.97 136.28C124.32 138.34 122.98 142.61 121.99 145.77C121 148.92 119.64 153.24 118.97 155.37C118.29 157.49 117.27 160.77 116.68 162.65C116.1 164.53 114.66 169.1 113.5 172.8C112.33 176.5 111.38 179.61 111.38 179.7C111.38 179.79 119.21 179.86 128.78 179.86L146.19 179.86C149.03 177.04 149.85 176.2 149.84 176.17C149.84 176.14 142.33 176.11 133.15 176.11L116.46 176.11C117.86 171.75 118.89 168.45 119.66 165.96C120.44 163.47 122.51 156.77 124.28 151.06C126.04 145.36 128.6 137.11 129.95 132.74C131.3 128.38 133.25 122.07 134.29 118.73C135.32 115.39 136.56 111.37 137.05 109.79C137.53 108.22 138.01 106.65 138.13 106.32C138.26 105.94 138.26 105.66 138.14 105.59C138.02 105.52 136.65 107.19 135.08 109.29Z" />
		<path class="shp0" d="M73.32 112.28C72.89 113.7 71.6 117.87 70.46 121.54C69.33 125.21 68.47 128.28 68.56 128.38C68.65 128.47 69.27 128.2 69.93 127.78C70.59 127.35 72.3 126.01 73.72 124.8C75.15 123.59 76.46 122.49 76.63 122.37C76.91 122.18 76.81 121.47 75.95 117.41C75.4 114.8 74.84 111.99 74.71 111.17C74.58 110.35 74.39 109.68 74.29 109.68C74.19 109.68 73.76 110.85 73.32 112.28Z" />
		<path class="shp2" d="M96.02 117.97C95.29 118.27 94.16 118.84 93.5 119.23C92.84 119.62 91.11 121.09 89.65 122.48C88.19 123.88 86.1 126.02 84.99 127.23C83.89 128.45 82.28 130.39 81.41 131.54C80.55 132.69 79.33 134.37 78.69 135.28C77.55 136.92 77.54 136.96 77.24 139.48C77.07 140.87 76.85 142.26 76.73 142.57C76.62 142.87 75.94 144.06 75.22 145.21L73.92 147.31C73.82 161.68 73.89 167.93 74.01 170.48C74.14 173.03 74.44 176.26 74.68 177.66C74.93 179.05 75.38 181.09 75.7 182.18C76.02 183.27 76.63 185.11 77.07 186.26C77.5 187.42 78.07 188.53 78.32 188.75C78.58 188.97 79.23 189.46 79.78 189.84C80.33 190.23 80.9 190.67 81.05 190.83C81.2 190.99 81.43 191.07 81.55 191.01C81.67 190.94 81.39 190.05 80.88 188.91C80.4 187.82 79.55 185.48 79.01 183.72C78.46 181.96 77.77 179.31 77.47 177.82C77.17 176.33 76.82 174.07 76.69 172.8C76.56 171.51 76.46 165.49 76.46 159.23L76.46 147.97C77.62 146.26 78.26 145.17 78.63 144.44C79 143.71 79.41 142.52 79.54 141.79C79.67 141.06 79.78 140.07 79.78 139.59C79.78 139.1 79.9 138.36 80.05 137.93C80.2 137.51 80.86 136.36 81.53 135.39C82.19 134.42 83.34 132.83 84.07 131.86C84.81 130.89 86.8 128.51 88.5 126.57C90.2 124.62 92.4 122.24 93.38 121.27C94.36 120.3 95.68 119.16 96.31 118.73C96.93 118.31 97.45 117.83 97.45 117.68C97.46 117.53 97.43 117.41 97.4 117.41C97.37 117.42 96.75 117.66 96.02 117.97Z" />
		<path class="shp3" d="M83.25 138.43C82.9 138.96 82.65 139.67 82.65 140.08C82.65 140.48 82.53 141.57 82.38 142.51C82.24 143.45 81.99 144.34 81.83 144.5C81.67 144.65 81.59 144.85 81.64 144.94C81.69 145.03 82.14 147.04 82.63 149.41C83.12 151.77 84.42 158.03 85.52 163.31C86.62 168.59 87.55 172.93 87.57 172.96C87.6 172.98 88.31 172.09 89.15 170.97C90.45 169.22 90.65 168.84 90.54 168.28C90.47 167.91 89.65 164.04 88.73 159.67C87.8 155.3 86.39 148.6 85.6 144.77C84.8 140.95 84.08 137.75 84 137.66C83.92 137.57 83.58 137.92 83.25 138.43Z" />
	</g>
</svg>