<?xml version="1.0" encoding="UTF-8" standalone="no"?>
<svg xmlns:rdf="http://www.w3.org/1999/02/22-rdf-syntax-ns#" xmlns="http://www.w3.org/2000/svg" height="300" width="300" version="1.1" xmlns:cc="http://creativecommons.org/ns#" xmlns:dc="http://purl.org/dc/elements/1.1/" viewBox="0 0 300 300"><rect width="300" height="300" fill="#40525900"/><path d="M31.554,86.643c3.799.142,23.85-21.491,26.791-23.703,21.438,29.347,22.032,39.505,71.449,84.088-2.975-20.317-38.262-80.601-56.562-99.327,8.932-9.029,27.56-27.152,32.744-33.296,5.491,15.799,25.006,77.316,45.252,114.563h0c15.479-29.347,42.52-103.844,42.271-115.128,8.849,8.192,22.393,25.94,32.153,34.427-19.056,14.673-51.801,81.83-63.711,113.435-3.451,9.167-.593,14.673-.593,14.673,10.674,8.192,46.44,41.762,52.991,47.97C201.243,139.693,228.63,83.257,247.682,62.94c3.053,3.219,12.271,10.933,22.03,20.881-10.12,13.544-30.136,48.92-30.96,85.782-1.192,53.049,7.738,76.188,22.027,97.069-6.391,7.835-11.179,7.321-20.241,18.06-14.338-13.164-68.987-62.478-78.596-71.109h0l1.79,40.069c.456,2.339.969,23.352,10.12,33.299-20.102.026-23.964.028-44.059.563,6.71-9.071,8.778-28.845,8.932-34.989l-.598-63.773c-7.932-7.607-47.121-43.191-50.606-46.842h0c4.165,21.446,4.764,88.04-25.004,138.27-2.443-3.514-27.299-33.074-26.797-33.863,9.15-14.338,25.295-46.615,25.601-76.752.559-55.033-20.922-69.503-29.767-82.962" fill="#fff" stroke="#fff"/></svg>