<?xml version="1.0" encoding="UTF-8" standalone="no"?>
<svg xmlns:rdf="http://www.w3.org/1999/02/22-rdf-syntax-ns#" xmlns="http://www.w3.org/2000/svg" height="166.96" width="200" version="1.1" xmlns:cc="http://creativecommons.org/ns#" xmlns:dc="http://purl.org/dc/elements/1.1/" viewBox="0 0 199.99999 166.9558">
 <g transform="translate(134.08 -445.98)">
  <g transform="matrix(2.1039 0 0 2.1039 39.941 -586.49)">
   <path d="m11.974 491.26h-94.111v78.405h94.111v-78.405z" fill="#40525900"/>
   <path d="m76.412 16.998c-5.377 0.15655-10.468 3.825-12.445 12.488 2.3862-3.41 6.7393-6.3094 10.748-3.9219 3.4588 2.0588 3.4772 4.3542 2.0859 8.4492l-1.0488 3.0879c-4.1588-4.3675-12.979-3.482-14 6.373 2.7262-2.4725 12.6-2.2477 9.6484 6.4336-0.0025 0.006-0.0046 0.01203-0.0059 0.01953l-8.8457 26.037c-7.3775 0.0738-14.779 3.8008-17.047 13.051 2.0625-3.2875 17.182-9.7682 30.891 0.18555l8.639-10.612c-0.59375-0.59-5.3089-1.5627-8.8477 1.9023-1.8675-1.58-4.2702-2.8104-6.9102-3.5879l4.5605-13.432h16.816l5.9238 17.793c2.3488 7.0538 7.7592 11.059 11.168 5.7305 0 0 9.3726-14.052 10.486-15.682 1.1119-1.6261-1.107-1.8862-1.373-1.6309-9.0888 9.9475-12.041 6.0612-13.609 1.3574l-14.857-44.63c-1.375-4.1275-3.9151-7.6103-8.2363-8.9766-1.2366-0.31969-2.4935-0.47167-3.7344-0.43555zm24.555 16.043v5.4648h1.793l-1.582 4.3066h1.5293l3.6191-4.7266v-5.0449h-5.3594zm20.982 0.67773c-2.8954 0.1451-5.6528 1.3392-7.3301 3.7012-5.2762 7.4188 0.72992 11.43 7.5449 13.135 2.7812 0.69375 6.3533 2.3007 4.582 5.0332-1.495 2.3012-7.2654 1.2151-11.619-2.7324l-2.9492 4.0078c2.6438 3.0738 12.967 9.5062 19.432 1.6699 5.3575-6.5038-1.5347-12.244-5.8359-13.098-4.3038-0.8525-7.8936-1.7219-6.8086-4.8594 0.91375-2.6475 7.293-2.3907 9.498 0.93555l3.3438-3.4102c-2.1832-3.022-6.1347-4.5694-9.8574-4.3828zm-39.625 4.7637 5.9473 17.857h-12.012l6.0645-17.857z" transform="translate(-124.57 477.46)" fill="#fff"/>
  </g>
 </g>
</svg>
