<?xml version="1.0" encoding="UTF-8" standalone="no"?>
<!-- Generator: Adobe Illustrator 13.0.1, SVG Export Plug-In . SVG Version: 6.00 Build 14948)  -->
<!DOCTYPE svg  PUBLIC '-//W3C//DTD SVG 1.1//EN'  'http://www.w3.org/Graphics/SVG/1.1/DTD/svg11.dtd'>
<svg id="Layer_1" xmlns="http://www.w3.org/2000/svg" y="0px" xml:space="preserve" height="216px" width="197.33px" version="1.1" x="0px" xmlns:xlink="http://www.w3.org/1999/xlink" viewBox="0 0 197.334 216" enable-background="new 0 0 197.334 216">
<rect y="-34.667" x="-62.666" width="319.33" height="316" fill="#40525900"/>
<path d="m125.56 100.31h-61.975v-64.569h61.971c9.806 0 15.938 6.192 15.938 14.355v36.934c-0.01 8.609-4.86 13.28-15.94 13.28m41.31-27.615c0-11.025 1.563-22.944 8.469-34.822-18.25-4.508-32.28-21.686-36.83-36.873-7.554 7.391-14.963 9.097-26.679 9.097l-78.295-0.102-10.701 26.68c6.478 2.741 10.701 8.854 10.701 16.183v122.09c0 7.349-4.224 13.441-10.701 16.222l10.701 25.83h29.867l10.682-25.828c-6.437-2.68-10.682-8.994-10.682-16.222v-48.123l48.428 0.021c11.716 0 19.125 2.903 26.679 10.295 4.954-15.188 19.777-26.518 37.991-31.046-6.9-11.852-9.63-22.41-9.63-33.395z" fill="#FDB827"/>
</svg>
