<svg xmlns="http://www.w3.org/2000/svg" viewBox="0 0 250 250" width="250" height="250" >
	<style>
		.shp0 { fill: #fec62d } 
	</style>
	<g >
		<path class="shp0" d="M-69.06 -0.46C-69.06 -0.15 -4.22 0 124.54 0C253.15 0 318.22 -0.15 318.37 -0.46C318.52 -0.77 253.84 -0.92 124.77 -0.92C-4.14 -0.92 -69.06 -0.77 -69.06 -0.46Z" />
		<path fill="#19273400" d="M318.39 -0.46C318.22 -0.15 253.13 0 124.54 0L-69.06 0C-69.07 224.21 -68.96 251.03 -68.52 250.58C-68.07 250.12 -28.65 250 125.55 250L319.06 250C319.06 55.54 318.97 -0.92 318.85 -0.92C318.74 -0.92 318.53 -0.71 318.39 -0.46Z" />
		<path class="shp0" d="M55.48 15.95C53.96 16.32 51.47 17.29 49.95 18.09C48.43 18.9 45.9 20.86 44.31 22.44C42.34 24.42 40.94 26.37 39.86 28.66C38.99 30.5 38.05 33.24 37.76 34.76C37.4 36.69 37.28 46.18 37.39 66.3C37.53 94.98 37.54 95.08 38.58 97.84C39.16 99.36 40.23 101.53 40.96 102.67C41.68 103.81 43.13 105.62 44.16 106.7C45.19 107.78 47.13 109.36 48.46 110.22C49.79 111.07 52.22 112.27 53.87 112.86L56.86 113.95C130.47 114.41 130.53 114.41 132.14 115.41C133.02 115.96 134.21 117.2 134.77 118.17C135.79 119.93 135.79 120 135.8 143.99C135.82 163.82 135.71 168.27 135.17 169.31C134.81 170.01 133.93 171.14 133.21 171.82C132.49 172.5 131.34 173.27 130.64 173.54C129.89 173.83 125.44 174.03 119.71 174.03L110.04 174.03L110.04 122.93L87.02 122.93L87.02 174.03L64.15 173.8C61.37 171.64 60.2 170.14 59.69 168.97C58.88 167.1 58.82 166.21 59.08 159.99C59.23 156.19 59.68 151.79 60.07 150.21C60.46 148.62 61.19 146.5 61.69 145.49L62.62 143.65L38.67 143.65C38.69 167.84 38.85 171.71 39.37 173.92C39.75 175.5 40.71 178.09 41.5 179.67C42.38 181.41 44.16 183.75 45.99 185.58C47.92 187.5 50.13 189.15 52.03 190.07C53.67 190.88 56.47 191.84 58.24 192.21C60.63 192.72 64.76 192.9 74.24 192.9L87.02 192.91C86.73 220.88 86.63 222.46 85.7 225.83C85.15 227.85 84.08 230.81 83.32 232.39L81.95 235.27L176.57 235.04C182.63 232.88 185.84 231.3 187.62 230.13C189.39 228.97 192.08 226.68 193.6 225.04C195.12 223.4 197.12 220.63 198.05 218.88C198.97 217.13 200.22 214.15 200.81 212.25L201.89 208.79L201.89 88.63C200.22 83.28 198.99 80.27 198.07 78.5C196.91 76.23 195.25 74.11 192.48 71.35C189.82 68.71 187.49 66.88 185.31 65.74C183.54 64.8 180.43 63.61 178.41 63.09C174.81 62.17 173.67 62.14 128.34 62.15L81.95 62.15C84.08 66.61 85.14 69.57 85.69 71.59C86.53 74.71 86.71 76.82 86.85 85.29L87.02 95.3C68.79 95.3 65.99 95.15 65.03 94.67C64.34 94.32 63.09 93.29 62.27 92.37C61.45 91.45 60.66 90.03 60.52 89.2C60.38 88.38 60.33 76.71 60.41 63.27L60.54 38.84C62.38 36.03 63.72 34.81 64.72 34.3C66.48 33.41 67.44 33.38 98.76 33.38C130.8 33.38 130.99 33.39 132.6 34.36C133.59 34.96 134.63 36.2 135.31 37.58C136.2 39.38 136.38 40.32 136.2 42.36C136.08 43.75 135.49 45.93 134.89 47.19C134.29 48.46 133.73 49.65 133.66 49.84C133.58 50.03 138.9 50.18 145.49 50.18L157.46 50.18C157.46 38.26 157.25 35.31 156.74 33.38C156.34 31.86 155.36 29.37 154.56 27.85C153.76 26.34 151.86 23.84 150.33 22.32C148.81 20.79 146.32 18.89 144.8 18.09C143.28 17.29 140.69 16.31 139.04 15.92C136.46 15.3 130.7 15.21 97.15 15.24C64.57 15.26 57.79 15.38 55.48 15.95Z" />
		<path fill='#192734' d="M110.28 80.86C110.06 81.04 109.92 84.36 109.96 88.24L110.04 95.3C129.84 95.31 136.94 95.52 138.58 95.78C140.41 96.06 143.1 96.99 145.49 98.17C148.2 99.5 150.18 100.89 151.93 102.68C153.33 104.1 155.13 106.5 155.93 108C156.74 109.5 157.73 111.97 158.12 113.49C158.74 115.85 158.84 120.3 158.84 144.11C158.84 167.92 158.74 172.36 158.12 174.72C157.73 176.24 156.74 178.72 155.93 180.22C155.13 181.72 153.22 184.18 151.7 185.68C149.97 187.38 147.74 188.99 145.72 189.97C143.95 190.83 141.05 191.84 139.27 192.22C136.88 192.72 132.69 192.9 123.04 192.9L110.04 192.91L110.04 216.39L170.15 216.16C173.76 214.3 175.37 212.94 176.26 211.76C177.1 210.63 178.09 208.68 178.45 207.41C179.01 205.46 179.09 196.32 178.99 147.56L178.87 90.01C176.97 86.44 175.83 84.86 175.11 84.19C174.39 83.52 172.87 82.49 171.73 81.89L169.66 80.8C123.95 80.6 110.5 80.68 110.28 80.86Z" />
		<path class="shp0" d="M-68.35 250.46C-68.52 250.77 -3.85 250.92 125.23 250.92C254.14 250.92 319.06 250.77 319.06 250.46C319.06 250.15 254.23 250 125.48 250C-3.09 250 -68.18 250.15 -68.35 250.46Z" />
	</g>
</svg>