<?xml version="1.0" encoding="UTF-8" standalone="no"?>
<svg
   xmlns:dc="http://purl.org/dc/elements/1.1/"
   xmlns:cc="http://creativecommons.org/ns#"
   xmlns:rdf="http://www.w3.org/1999/02/22-rdf-syntax-ns#"
   xmlns:svg="http://www.w3.org/2000/svg"
   xmlns="http://www.w3.org/2000/svg"
   version="1.1"
   id="svg23675"
   viewBox="0 0 250 250"
   height="250"
   width="250">
  <metadata
     id="metadata23715">
    <rdf:RDF>
      <cc:Work
         rdf:about="">
        <dc:format>image/svg+xml</dc:format>
        <dc:type
           rdf:resource="http://purl.org/dc/dcmitype/StillImage" />
        <dc:title></dc:title>
      </cc:Work>
    </rdf:RDF>
  </metadata>
  <defs
     id="defs23713" />
  <path
     id="path23677"
     d="M0 .021h250v249.996H0z"
     fill="#40525900" />
  <path
     id="path23679"
     fill="#0c2c56"
     d="M60.898 152.743c21.416 1.739 22.636 14.435 30.396 27.878 6.752 11.688 16.006 22.629 29.038 22.629 14.435 0 16.166-14.466 16.166-19.852 0-8.408-4.257-15.183-10.688-21.226-1.022-.946-2.762-3.311-3.875-4.227-4.349-3.586-9.384-6.942-14.633-10.284-1.435-.916-2.212-.412-3.67-1.328-20.82-13.106-43.365-27.942-43.365-68.142 0-48.02 35.744-70.358 60.402-70.358 17.959 0 30.953 10.735 30.953 10.735l24.498-8.873v81.329c-16.221 0-26.275-16.189-29.854-23.025-2.021-3.86-6.965-22.362-21.049-22.362-9.087 0-11.398 9.499-11.398 15.068 0 7.774 5.203 14.931 13.122 20.63 4.959 3.563 11.224 7.416 17.281 11.131 2.892 1.785 9.826 4.875 10.826 5.584 13.152 9.308 34.378 26.436 34.378 64.229 0 50.812-35.996 78.674-67.574 78.674-14.809 0-32.936-8.85-32.936-8.85l-28.015 10.101v-89.461z" />
  <g
     id="g23681"
     fill="#005c5c">
    <path
       id="path23683"
       d="M143.479 92.017c-3.86-2.373-7.782-4.792-11.368-7.149l1.351 8.354c1.373.862 2.754 1.717 4.112 2.556l5.905-3.761zM98.808 143.268l2.647-5.783c-4.288-2.777-8.659-5.787-12.779-9.243l-11.085-1.815c6.317 6.769 13.763 12.034 21.217 16.841zM117.89 147.082c-.237-.168-.473-.32-.702-.488l-5.867 3.662c2.77 1.831 5.44 3.678 7.935 5.585l-1.366-8.759z" />
    <path
       id="path23685"
       d="M174.614 126.502c5.852 10.144 8.507 22.183 8.507 35.778 0 27.496-10.964 44.54-20.157 54-11.353 11.674-26.337 18.372-41.115 18.372-16.777 0-32.051-10.01-32.051-10.01l-22.606 8.591v-70.572c7.561 1.313 11.139 6.684 14.282 13.138 1.267 2.595 2.739 5.158 4.364 7.98 10.017 17.334 21.293 25.772 34.493 25.772 16.586 0 22.469-14.084 22.469-26.153 0-8.637-3.548-16.495-10.796-23.941l-1.328 8.026c3.617 4.685 5.821 9.888 5.821 15.915 0 5.386-1.731 19.852-16.166 19.852-13.031 0-22.286-10.94-29.038-22.629-7.759-13.443-8.98-26.139-30.396-27.878v89.462l28.015-10.101s18.127 8.85 32.936 8.85c31.578 0 67.574-27.862 67.574-78.674 0-15.427-3.54-27.405-8.621-36.824l-6.187 1.046zM155.045 98.052c-.115-.084-.32-.206-.58-.343l-2.51 5.875c4.799 3.411 10.276 7.484 15.221 12.848l8.85 1.442c-6.73-9.263-14.755-15.42-20.981-19.822zM78.506 117.758c-8.026-10.467-11.948-23.422-11.948-39.566 0-25.055 11.963-41.359 20.638-49.721 9.857-9.506 21.69-14.335 33.47-14.335 17.411 0 30.319 12.047 30.319 12.047l18.83-7.5v64.163c-12.863-3.929-14.038-13.717-20.165-24.055-6.744-11.391-12.245-19.455-24.437-19.455-12.162 0-17.7 11.078-17.7 21.37 0 8.385 4.318 16.35 12.512 23.224l1.19-7.477c-4.608-4.7-7.4-10.056-7.4-15.747 0-5.57 2.312-15.068 11.398-15.068 14.084 0 19.027 18.501 21.049 22.362 1.915 3.655 5.685 9.987 11.254 15.091l4.379-2.792-2.029 4.768c4.448 3.449 9.872 5.958 16.251 5.958V9.696l-24.498 8.873S138.626 7.834 120.666 7.834c-24.658 0-60.402 22.339-60.402 70.358 0 17.914 4.479 30.792 11.284 40.726l6.958-1.16z" />
  </g>
  <g
     id="g23687"
     fill="#c4ced4">
    <path
       id="path23689"
       d="M104.4 113.44L89.417 80.397l28.435 17.197 1.259-7.896c-9.354-6.958-16.007-15.389-16.007-28.938 0-16.174 9.911-26.542 20.95-26.542 25.78 0 29.251 31.372 40.879 40.794V25.397c-7.324 2.602-13.077 6.218-14.42 6.218-2.357 0-12.871-13.107-29.648-13.107-20.515 0-49.629 20.744-49.629 58.579 0 17.723 4.944 30.243 12.298 39.833l20.866-3.48zM149.734 108.779l-1.915 4.486 9.873 1.618c-2.541-2.206-5.218-4.212-7.958-6.104zM96.176 129.47c2.189 1.717 4.44 3.33 6.729 4.871l1.61-3.506-8.339-1.365zM147.613 131.064l.046.907 14.374 31.94-27.894-17.318-1.221 7.37c8.438 6.958 14.29 15.351 14.29 28.076 0 18.905-10.551 32.44-25.047 32.44-34.5 0-41.214-35.172-50.164-43.809l.023 55.268c11.551-3.479 14.809-7.141 17.12-7.141 4.09 0 13.016 11.047 32.395 11.047 27.694 0 56.755-26.81 56.755-67.123 0-15.229-3.692-26.475-9.438-35.244l-21.239 3.587z" />
  </g>
  <path
     id="path23691"
     d="M93.658 85.173l13.23 29.297-.16 16.068-13.07 28.507 26.78-16.693 9.445-.641 27.878 17.334-11.971-26.623-.938-17.005 12.909-30.244-24.254 15.434-12.764.947"
     fill="#005c5c" />
  <path
     id="path23693"
     d="M93.658 85.173l20.951 24.567-7.881 20.798-13.07 28.507 22.202-24.262 14.023 6.928 27.878 17.334-25.2-29.926 12.291-13.702 12.909-30.244-22.995 25.833-14.023-9.452"
     fill="#c4ced4" />
  <path
     id="path23695"
     fill="#005c5c"
     d="M156.342 122.176c0 16.88-13.68 30.552-30.556 30.552S95.23 139.056 95.23 122.176c0-16.876 13.68-30.556 30.556-30.556s30.556 13.68 30.556 30.556z" />
  <path
     id="path23697"
     fill="#FFF"
     d="M155.243 122.176c0 16.27-13.184 29.453-29.458 29.453-16.266 0-29.457-13.184-29.457-29.453 0-16.266 13.191-29.457 29.457-29.457 16.275 0 29.458 13.191 29.458 29.457z" />
  <g
     id="g23699"
     fill="#d50032">
    <path
       id="path23701"
       d="M106.583 102.111c.229-.069.778-2.037.778-2.037-.038-.107-.305-.351-.427-.465-.137.106-.274.236-.412.351l-.389 1.412-.343-.282c-.046-.008-.32.061-.656.152-.374.366-.74.74-1.091 1.137.503-.114 1.915-.542 2.174-.618.144.167.366.35.366.35" />
    <path
       id="path23703"
       d="M108.643 103.476c.198-.083.763-2.144.763-2.144-.068-.168-.641-.503-.641-.503l-.168-.084-.046.167-.503 1.87-.496-.298c-.122-.015-2.464.694-2.464.694-.031.259.595.633.595.633.106.008 2.182-.625 2.434-.709.19.176.526.374.526.374M108.101 105.292c.114.008 2.212-.771 2.38-.832.213.153.572.328.572.328.213-.099.564-2.182.564-2.182-.084-.145-.725-.458-.725-.458l-.175-.077-.023.191-.32 1.869-.542-.274c-.122 0-2.396.847-2.396.847-.014.26.665.588.665.588M110.207 106.215c.168.229.664.435.664.435.107 0 2.159-.877 2.312-.946.221.145.618.305.618.305.199-.107.374-2.197.374-2.197-.091-.145-.755-.412-.755-.412l-.183-.084-.015.191-.16 1.869-.58-.229c-.122 0-2.334.946-2.334.946-.002.031.02.084.059.122M112.968 107.36c.008.045.039.076.077.129h.007c.199.198.763.351.763.351.099-.015 1.968-1.106 2.09-1.175.259.114.717.236.717.236.183-.16-.054-2.235-.054-2.235-.106-.122-.862-.32-.862-.32l-.199-.061.016.213.213 1.862-.656-.183c-.105.023-2.112 1.183-2.112 1.183M135.032 107.23c.023-.16.046-.282.054-.351.268-.03.74-.16.74-.16.008-.03-.023-.076-.054-.13h.008l-.03-.03c-.176-.244-.626-.656-1.03-1.007.114.587.214 1.152.312 1.678M137.337 105.879c-.1.122-.374 1.892-.374 1.892.19.153.931-.129.931-.129.076-.099.328-1.595.366-1.847.244-.076.596-.198.596-.198 0-.03-.023-.076-.062-.137l.016-.008-.062-.03c-.396-.435-1.899-1.412-1.899-1.412-.13-.015-.816.252-.816.252l-.26.099 2.061 1.335M139.709 104.911c-.076.13-.015 1.884-.015 1.884.206.115.87-.229.87-.229.061-.115.022-1.511.015-1.816.236-.084.564-.244.564-.244 0-.031-.03-.061-.091-.122h.022l-.054-.023c-.419-.412-1.999-1.313-1.999-1.313-.137-.007-.763.298-.763.298l-.244.122 2.129 1.221M141.922 103.781c-.076.145.122 1.87.122 1.87.222.114.839-.252.839-.252.062-.122-.091-1.526-.121-1.808.229-.099.503-.267.503-.267 0-.038-.03-.076-.084-.122h.008l-.03-.023c-.428-.374-2.075-1.198-2.075-1.198-.146 0-.718.343-.718.343l-.221.137 2.174 1.091M144.043 102.469c-.046.16.572 1.808.572 1.808.229.053.725-.374.725-.374.03-.129-.435-1.411-.549-1.724.19-.122.442-.343.442-.343-.038-.236-2.273-1.091-2.273-1.091-.146.023-.596.412-.596.412l-.175.161 2.204.854m.306 1.914zM146.454 102.751c.229.061.732-.366.732-.366.015-.061-.054-.29-.153-.58-.32-.328-.655-.664-.991-.992l-.16.145c-.038.146.572 1.793.572 1.793M144.027 99.784l1.557.595c-.366-.328-.732-.648-1.113-.961-.138.107-.268.213-.268.213M145.218 142.291c-.244.076-.786 2.045-.786 2.045.023.076.184.244.321.366.198-.168.389-.336.579-.504l.32-1.16.344.275c.03.015.168-.016.366-.062.374-.381.748-.747 1.114-1.145-.626.168-1.679.474-1.908.55-.144-.182-.35-.365-.35-.365" />
    <path
       id="path23705"
       d="M146.11 140.612c-.114-.016-2.174.61-2.434.687-.19-.168-.526-.351-.526-.351-.214.092-.763 2.136-.763 2.136.061.153.648.488.648.488l.152.092.55-2.029.503.29c.106.015 2.457-.702 2.457-.702.032-.244-.587-.611-.587-.611M143.692 139.132c-.115-.015-2.259.764-2.389.824-.206-.152-.572-.32-.572-.32-.206.092-.549 2.167-.549 2.167.076.152.702.458.702.458l.183.076.336-2.061.549.275c.122 0 2.396-.824 2.396-.824.015-.259-.656-.595-.656-.595M141.579 138.187h.007-.007c-.168-.214-.656-.412-.656-.412-.114 0-2.19.885-2.312.931-.229-.152-.626-.306-.626-.306-.198.107-.374 2.213-.374 2.213.084.122.756.412.756.412l.19.076.175-2.075.58.229c.122 0 2.335-.931 2.335-.931 0-.047-.03-.092-.068-.137M138.824 137.057c0-.045-.03-.091-.076-.137h.008-.008c-.198-.198-.763-.352-.763-.352-.106.016-2.015 1.13-2.105 1.176-.244-.107-.718-.229-.718-.229-.183.152.069 2.243.069 2.228.099.138.861.321.861.321l.198.061-.244-2.075.672.184c.107-.017 2.106-1.177 2.106-1.177M135.346 135.943h-.016c-.016-.016-.054-.046-.092-.062-.015.122-.038.229-.061.352.152-.107.244-.184.244-.184-.007-.029-.045-.06-.075-.106M114.464 138.537c.084-.106.358-1.907.358-1.907-.183-.138-.923.152-.923.152-.084.092-.328 1.572-.359 1.831-.251.076-.603.198-.603.198-.008.046.099.168.099.168.412.442 1.907 1.435 1.907 1.435.122 0 .816-.26.816-.26l.252-.106-2.037-1.327M112.083 139.498c.069-.122.015-1.876.015-1.876-.221-.122-.862.229-.862.229-.076.106-.045 1.525-.03 1.815-.236.076-.549.229-.549.229 0 .03.114.152.114.152.427.412 1.992 1.327 1.992 1.327.137 0 .771-.305.771-.305l.236-.122-2.128-1.221M109.871 140.612c.068-.122-.13-1.861-.13-1.861-.214-.107-.832.274-.832.274-.069.106.084 1.511.114 1.785-.213.122-.503.29-.503.29.008.016.038.046.084.106h-.008l.023.016c.412.366 2.083 1.205 2.083 1.205.145 0 .717-.351.717-.351l.221-.122-2.174-1.099M107.758 141.939c.03-.152-.588-1.815-.588-1.815-.221-.046-.717.382-.717.382-.038.122.435 1.419.549 1.724-.191.122-.443.352-.443.352.038.229 2.274 1.083 2.274 1.083.145-.03.603-.427.603-.427l.168-.138-2.212-.854M105.332 141.665c-.229-.061-.725.366-.725.366-.015.062.092.412.222.778.282.29.572.58.862.854l.221-.198c.037-.152-.58-1.8-.58-1.8M107.773 144.625l-1.786-.687c.42.382.847.748 1.282 1.099.152-.122.32-.259.32-.259M116.669 137.53c-.26.046-.702.168-.702.168 0 .03.015.076.061.122l-.015.015.03.016c.145.214.496.534.839.839-.076-.397-.153-.779-.213-1.16" />
  </g>
  <path
     id="path23707"
     d="M125.946 58.707l-8.667 54.504-53.863 8.973 53.863 8.827 8.507 54.341 8.98-54.029 54.969-9.292-54.969-8.98"
     fill="#005c5c" />
  <path
     id="path23709"
     d="M125.946 58.707l-.16 63.469-8.507-8.965-53.863 8.973 62.37-.008-8.507 8.835 8.507 54.341v-63.176l8.98 9.147 54.969-9.292-63.949.145 8.98-9.125"
     fill="#c4ced4" />
</svg>
