<svg xmlns="http://www.w3.org/2000/svg" height="232" viewBox="0 0 224 232" width="224">
<rect width="224" height="232" fill="#40525900"/>
<path d="m41.292 29.649c8.227-3.935 16.988-12.202 20.094-17.759 7.931 3.737 80.907 3.145 89.35 0 5.086 7.396 10.541 11.55 18.236 14.061-0.691 7.141-0.475 9.672 1.859 15.407h-20.096l-8.443-9.395h-71.559l-9.354 8.188v37.972l9.314 9.058 11.847 0.475c0-14.101 0.138-16.77-10.206-19.54 3.441-6.921 4.134-7.713 5.045-16.335 8.858 2.967 100.54 1.364 104.54-0.929-0.633 8.979 4.412 26.025 7.834 32.375h-20.094c-1.012-6.962-5.42-12.341-12.42-13.647h-54.61v18.076s42.481 1.147 48.096-0.751c2.791 7.237 12.816 17.878 20.096 20.807-2.434 14.811-1.979 40.105 0 55.492-7.932 3.916-15.982 11.945-20.096 20.076-9.984-2.752-48.096-1.367-48.096-1.367v11.353c1.959 7.753 6.111 9.65 13.45 10.265 0 0-5.875 11.053-6.093 17.482h-34.334c-0.158-6.289-6.132-17.482-6.132-17.482 6.586-0.298 12.006-4.213 13.014-10.265v-11.353s-12.044-0.494-21.161 1.367c-2.73-6.174-12.796-17.267-20.094-20.076 1.681-4.469 0.89-32.197-1.563-38.051h21.656v28.203l8.444 9.848h12.717v-58.22s-11.136-0.555-21.161 0.197c-2.868-5.576-11.472-14.596-20.094-18.865 2.689-10.229 2.926-46.995 0-56.666m61.348 75.331v21.082s26.78 1.701 34.946-3.283c-1.443 4.688-1.008 19.896 0 22.427-10.342-5.319-34.946-3.241-34.946-3.241v21.238h39.653l8.465-9.848v-36.311l-9.811-11.372c-5.83-0.62-26.62-0.7-38.31-0.7z" fill="#FD5A1E"/>
</svg>
