<?xml version="1.0" encoding="UTF-8" standalone="no"?>
<svg
   xmlns:dc="http://purl.org/dc/elements/1.1/"
   xmlns:cc="http://creativecommons.org/ns#"
   xmlns:rdf="http://www.w3.org/1999/02/22-rdf-syntax-ns#"
   xmlns:svg="http://www.w3.org/2000/svg"
   xmlns="http://www.w3.org/2000/svg"
   xmlns:sodipodi="http://sodipodi.sourceforge.net/DTD/sodipodi-0.dtd"
   xmlns:inkscape="http://www.inkscape.org/namespaces/inkscape"
   version="1.1"
   id="Layer_1"
   x="0"
   y="0"
   viewBox="0 0 203 217"
   xml:space="preserve"
   width="203"
   height="217"
   sodipodi:docname="St._Louis_Cardinals_insignia_logo3.svg"
   inkscape:version="1.0.1 (3bc2e813f5, 2020-09-07)"><sodipodi:namedview
     pagecolor="#ffffff"
     bordercolor="#666666"
     borderopacity="1"
     objecttolerance="10"
     gridtolerance="10"
     guidetolerance="10"
     inkscape:pageopacity="0"
     inkscape:pageshadow="2"
     inkscape:window-width="1920"
     inkscape:window-height="986"
     id="namedview863"
     showgrid="false"
     inkscape:zoom="2.4509804"
     inkscape:cx="18.520042"
     inkscape:cy="125.84095"
     inkscape:window-x="-11"
     inkscape:window-y="-11"
     inkscape:window-maximized="1"
     inkscape:current-layer="layer5"
     inkscape:document-rotation="0" /><metadata
     id="metadata903"><rdf:RDF><cc:Work
         rdf:about=""><dc:format>image/svg+xml</dc:format><dc:type
           rdf:resource="http://purl.org/dc/dcmitype/StillImage" /><dc:title></dc:title></cc:Work></rdf:RDF></metadata><defs
     id="defs901" /><style
     id="style886">.st0{fill:none}.st1{fill:#fff}</style><g
     inkscape:groupmode="layer"
     id="layer5"
     inkscape:label="Layer 2"><rect
       style="fill:#40525900;fill-opacity:1;stroke-width:10.4735"
       id="rect848"
       width="204.56226"
       height="218.6097"
       x="-0.1542536"
       y="0.078281268" /></g><path
     class="st0"
     d="M 110.7,100.7 C 110.7,88 94.6,84.6 85.6,84.5 c -0.2,0 -0.4,0.2 -0.4,0.4 v 9.7 c 0,0.5 0.1,1 0.3,1.5 l 1.5,3.3 c 0.3,0.7 -0.2,1.4 -0.9,1.4 H 72.4 c -0.7,0 -1.2,-0.7 -0.9,-1.4 L 72.9,96 c 0.2,-0.4 0.3,-0.9 0.3,-1.4 v -9.8 c 0,-0.2 -0.2,-0.4 -0.4,-0.4 h -25 c -0.2,0 -0.4,0.2 -0.4,0.4 v 28.6 c 0,0 0,0.1 0.1,0.1 34.1,9.9 63.2,4 63.2,-12.8 z M 34.4,37.2 c 0,-0.3 -0.3,-0.5 -0.6,-0.4 -8.2,2 -14.3,9.2 -14.3,17.7 0,9.1 5.5,16.7 14.3,18.1 0.3,0 0.5,-0.2 0.5,-0.4 v -35 z"
     id="path888" /><g
     id="g896"
     style="fill:#40525900;fill-opacity:1"
     transform="translate(3,4.8000002)"><path
       id="path894"
       style="fill:#40525900;fill-opacity:1"
       transform="translate(-3,-4.8000002)"
       d="m 128.13086,160.2207 c 0.009,0.0157 0.009,0.0184 0.0215,0.0371 0.008,-9.4e-4 0.0169,-8.6e-4 0.0254,-0.002 -6.8e-4,-0.003 7e-4,-0.004 0,-0.006 -0.006,-0.0173 -0.0135,-0.0171 -0.0195,-0.0293 -0.009,0 -0.0182,1e-5 -0.0273,0 z m 1.11523,0 c 0.0819,3.2e-4 0.16422,0.002 0.2461,0.002 0.13677,-2.9e-4 0.27338,-0.002 0.41015,-0.002 h -0.41211 z m 2.05469,0.52344 v 0.043 c 0.006,0.002 0.0116,0.005 0.0176,0.008 -0.005,-0.0169 -0.009,-0.0339 -0.0137,-0.0508 z m 2.9961,0.58789 c -10e-4,0.002 -0.002,0.005 -0.002,0.004 l 0.002,0.002 c 6.3e-4,-0.002 0.001,-0.004 0.002,-0.006 -5.8e-4,2.1e-4 -0.001,-2.1e-4 -0.002,0 z m 0.40234,0.32617 c -0.007,0.0162 -0.008,0.0124 -0.0176,0.0352 -0.003,0.009 0.0125,-0.014 0.0176,-0.0215 z m -5.7168,0.79688 c -1e-5,0.0261 4e-5,0.0521 0,0.0781 0.003,-1.5e-4 0.007,1.3e-4 0.01,0 -0.003,-0.0247 -0.006,-0.0495 -0.008,-0.0742 -7e-4,-0.002 -9.6e-4,-9e-4 -0.002,-0.004 z m -1.08594,0.83789 c 0.0908,0.0856 0.0967,0.10753 0.11329,0.11914 -0.0904,-0.0824 -0.19973,-0.20063 -0.11329,-0.11914 z" /></g><g
     inkscape:groupmode="layer"
     id="layer1"
     inkscape:label="Layer 1"><g
       id="layer2"
       transform="matrix(1.3137271,0,0,1.3466446,12.392249,0.94671371)"><g
         id="layer3" /><g
         id="layer4"><rect
           style="fill:#40525900;fill-opacity:1;stroke:none;stroke-width:8.22977;stroke-miterlimit:4;stroke-dasharray:none;stroke-opacity:1"
           id="rect3043"
           width="143.61201"
           height="172.09441"
           x="-3.2215579"
           y="-6.459547" /></g><g
         id="g3040"
         transform="translate(-1.521703,0.068221)"><path
           id="path905-5"
           style="fill:#40525900;fill-opacity:1;stroke:#22205f;stroke-width:7.77046;stroke-miterlimit:4;stroke-dasharray:none;stroke-opacity:1"
           d="m 27.968053,4.3990343 c -0.79496,0 -1.49053,0.6982778 -1.49053,1.4963089 v 6.1839688 c 0,0.798032 0.69557,1.496311 1.49053,1.496311 h 1.39155 c 3.27916,0 5.9621,2.693357 5.9621,5.985237 v 5.387105 c 0,0.199508 -0.19912,0.399405 -0.39786,0.399405 -14.70654,2.294342 -26.03376,15.06324 -26.03376,30.325599 0,15.362111 11.32761,27.332587 25.93478,29.427422 0.19874,0 0.39786,0.199896 0.39786,0.399404 v 23.940935 c -3.87537,-1.59605 -7.65176,-3.29302 -11.32839,-5.18835 -1.29179,-0.69828 -2.58397,-1.49553 -3.87576,-2.19381 -0.2981,-0.1995 -0.5966,-0.20067 -0.8947,-0.20067 -0.49685,0 -0.89354,0.0998 -1.19165,0.49877 -1.29179,1.49631 -2.88207,3.19212 -4.86944,5.48645 -1.19242,1.2968 -2.38522,2.69413 -3.87576,4.29021 -0.2981,0.29926 -0.39592,0.69827 -0.39592,0.99754 -0.0994,0.79803 0.69403,1.49669 1.88646,1.39694 1.98736,-0.19951 3.67817,-0.20029 5.06934,-0.30005 3.87536,0.19952 5.26536,1.29797 10.23377,3.69207 2.18611,1.0973 5.36552,2.49347 9.04215,4.08953 v 16.55878 c 0,4.78818 -5.86197,3.89 -8.14744,4.0895 -0.49684,0.0998 -0.6948,0.59854 -0.6948,0.99754 v 10.17608 c 0,0.79804 0.69557,1.49631 1.49052,1.49631 h 76.711667 c 9.73812,0 17.38988,-3.19212 23.74945,-9.47663 0.49685,-0.39902 0.59622,-1.29719 0,-1.89571 l -7.05477,-7.68223 c -0.5962,-0.59852 -1.59106,-0.59852 -2.18727,0 -4.96842,4.98771 -10.73142,6.48401 -14.50741,6.48401 H 54.500593 c -3.37852,0 -6.35997,-0.29809 -6.35997,-3.78948 v -12.66991 c 7.552,2.09482 13.81182,3.39319 20.96635,4.09146 28.0219,2.99261 53.957847,-5.68675 53.957847,-30.22623 0,-13.06777 -15.00541,-26.733285 -37.065211,-27.132301 -0.198737,0 -0.397862,-0.199897 -0.397862,-0.399406 V 63.25388 c 0,-0.199508 0.199125,-0.399405 0.397862,-0.399405 5.564634,0 10.334704,1.496309 10.334704,1.496309 1.98739,0.798032 1.68849,-1.596453 1.68849,-2.394484 l -0.099,-7.380237 c 0,-0.498769 -0.59661,-0.798811 -0.89471,-0.798811 h -34.97688 c -0.39747,0 -0.8947,0.299653 -0.8947,0.898176 v 7.382184 c 0,0.897786 -0.10015,2.891307 1.68848,2.392537 0,0 3.77639,-1.596063 10.33471,-1.496309 0.19874,0 0.39786,0.199896 0.39786,0.399404 v 9.377263 c 0,0.19951 -0.19912,0.399407 -0.39786,0.399407 h -24.64222 c -0.19873,0 -0.39785,-0.199897 -0.39785,-0.399407 V 37.317846 c 0,-0.199507 0.19912,-0.399405 0.39785,-0.399405 13.11664,-0.199508 36.964304,1.597233 55.844297,8.180995 0.6956,0.199508 1.39194,-0.0016 1.78942,-0.600083 1.58989,-2.693356 3.67546,-6.083433 6.75588,-11.370394 0.69558,-1.296802 -0.39747,-2.29473 -1.98736,-1.895715 -8.24758,2.194588 -8.54609,1.396166 -15.799977,-0.399405 -8.247583,-2.094834 -27.52506,-6.185137 -46.70317,-5.885874 -0.19874,0 -0.49684,-0.199898 -0.49684,-0.399407 V 19.56086 c 0,-3.29188 2.68295,-5.985237 5.96211,-5.985237 h 1.39154 c 0.79495,0 1.49053,-0.698279 1.49053,-1.496311 V 5.8953432 c 0,-0.7980311 -0.69558,-1.4963089 -1.49053,-1.4963089 z m 6.97714,32.8973817 c 0.20961,0.02806 0.37651,0.19639 0.37651,0.420837 v 34.814526 c -0.0994,0.299262 -0.29772,0.49877 -0.59582,0.49877 -8.74443,-1.396557 -14.21047,-8.879662 -14.21047,-18.057028 0,-8.479087 6.06225,-15.660594 14.21047,-17.655675 0.0745,-0.02493 0.14944,-0.03078 0.21931,-0.02142 z m 13.59328,47.70461 h 24.7412 c 0.19874,0 0.39786,0.197949 0.39786,0.397457 v 9.776668 c 0,0.498764 -0.0982,0.89817 -0.29694,1.39694 l -1.39155,3.39204 c -0.2981,0.598519 0.19913,1.394999 0.89471,1.394999 H 86.49645 c 0.69558,0 1.19281,-0.69673 0.894705,-1.394999 l -1.490527,-3.29268 c -0.198737,-0.49877 -0.298881,-0.997536 -0.298881,-1.4963 v -9.675356 c 0,-0.199508 0.199125,-0.499158 0.397862,-0.399404 8.943164,0.09975 24.941101,3.590363 24.941101,16.159369 0,16.75865 -28.815695,22.64454 -62.899067,12.86865 0,0 -0.10092,3.8e-4 -0.10092,-0.0993 V 85.398483 h 0.1999 c 0,-0.199508 0.19912,-0.397457 0.39785,-0.397457 z" /><path
           id="path905"
           style="fill:#ffffff;fill-opacity:1"
           d="m 27.599217,4.2 c -0.8,0 -1.5,0.7 -1.5,1.5 v 6.199219 c 0,0.8 0.7,1.5 1.5,1.5 h 1.40039 c 3.300003,0 6.000003,2.7 6.000003,6 v 5.40039 c 0,0.2 -0.20039,0.400391 -0.40039,0.400391 -14.800003,2.3 -26.199223,15.100391 -26.199223,30.400391 0,15.4 11.39961,27.4 26.099613,29.5 0.2,0 0.40039,0.20039 0.40039,0.40039 v 24.000009 c -3.900003,-1.6 -7.700393,-3.30117 -11.400393,-5.20117 -1.3,-0.7 -2.60039,-1.49922 -3.90039,-2.19922 -0.3,-0.2 -0.60039,-0.20117 -0.90039,-0.20117 -0.5,0 -0.89922,0.1 -1.19922,0.5 -1.3,1.5 -2.90039,3.2 -4.90039,5.5 -1.2,1.3 -2.40039,2.70078 -3.90039,4.30078 -0.3,0.3 -0.39844,0.7 -0.39844,1 -0.1,0.8 0.69844,1.50039 1.89844,1.40039 2,-0.2 3.70156,-0.20078 5.10156,-0.30078 3.9,0.2 5.29883,1.30117 10.29883,3.70117 2.2,1.1 5.39961,2.49961 9.099613,4.09961 V 138.7 c 0,4.80001 -5.899223,3.89961 -8.199223,4.09962 -0.5,0.1 -0.69922,0.6 -0.69922,1 v 10.20116 c 0,0.80001 0.7,1.5 1.5,1.5 h 77.199223 c 9.8,0 17.50039,-3.19999 23.90039,-9.5 0.5,-0.4 0.6,-1.30038 0,-1.90038 l -7.09961,-7.70117 c -0.59999,-0.6 -1.60117,-0.6 -2.20117,0 -5,5 -10.79962,6.5 -14.59961,6.5 H 54.30039 c -3.4,0 -6.40039,-0.29883 -6.40039,-3.79883 v -12.70117 c 7.6,2.09999 13.89961,3.40156 21.09961,4.10156 28.200003,3 54.30078,-5.70078 54.30078,-30.30078 0,-13.10001 -15.10078,-26.799229 -37.300781,-27.199229 -0.2,0 -0.400391,-0.20039 -0.400391,-0.40039 V 63.2 c 0,-0.2 0.200391,-0.400391 0.400391,-0.400391 5.600004,0 10.400394,1.5 10.400394,1.5 2,0.8 1.69922,-1.60039 1.69922,-2.40039 l -0.0996,-7.398438 c 0,-0.5 -0.6004,-0.800781 -0.9004,-0.800781 H 61.9 c -0.4,0 -0.90039,0.300391 -0.90039,0.900391 v 7.40039 c 0,0.9 -0.10078,2.898438 1.69922,2.398438 0,0 3.80039,-1.6 10.40039,-1.5 0.2,0 0.40039,0.20039 0.40039,0.40039 V 72.7 c 0,0.2 -0.20039,0.400391 -0.40039,0.400391 H 48.30039 C 48.10039,73.100391 47.9,72.9 47.9,72.7 V 37.2 c 0,-0.2 0.20039,-0.400391 0.40039,-0.400391 13.2,-0.2 37.199226,1.601172 56.19922,8.201172 0.70001,0.2 1.40078,-0.0016 1.80078,-0.601562 1.6,-2.7 3.69883,-6.098438 6.79883,-11.398438 0.7,-1.3 -0.4,-2.30039 -2,-1.90039 -8.3,2.2 -8.6004,1.399609 -15.900397,-0.400391 -8.299995,-2.1 -27.700003,-6.200391 -46.999993,-5.900391 -0.2,0 -0.5,-0.20039 -0.5,-0.40039 v -5 c 0,-3.3 2.7,-6 6,-6 h 1.40039 c 0.8,0 1.5,-0.7 1.5,-1.5 V 5.7 c 0,-0.8 -0.7,-1.5 -1.5,-1.5 z M 34.6207,37.178516 c 0.21094,0.02813 0.37891,0.196875 0.37891,0.421875 v 34.90039 c -0.1,0.3 -0.29961,0.5 -0.59961,0.5 -8.800003,-1.4 -14.300783,-8.901562 -14.300783,-18.101562 0,-8.5 6.10078,-15.699219 14.300783,-17.699219 0.075,-0.025 0.15039,-0.03086 0.2207,-0.02148 z m 13.67969,47.822265 h 24.89844 c 0.2,0 0.40039,0.198438 0.40039,0.398438 V 95.2 c 0,0.5 -0.0988,0.900391 -0.29883,1.400391 L 71.9,100.00077 c -0.3,0.60001 0.20039,1.39845 0.90039,1.39845 h 13.699219 c 0.7,0 1.200391,-0.69844 0.900391,-1.39845 L 85.9,96.700001 C 85.7,96.200001 85.599218,95.7 85.599218,95.2 v -9.699219 c 0,-0.2 0.200391,-0.50039 0.400391,-0.40039 9.000004,0.1 25.099611,3.599218 25.099611,16.199219 0,16.8 -28.998833,22.70039 -63.29883,12.90039 0,0 -0.10156,3.9e-4 -0.10156,-0.0996 V 85.399219 H 47.9 c 0,-0.2 0.20039,-0.398438 0.40039,-0.398438 z" /></g></g></g></svg>
