<?xml version="1.0" encoding="UTF-8" standalone="no"?>
<svg xmlns:rdf="http://www.w3.org/1999/02/22-rdf-syntax-ns#" xmlns="http://www.w3.org/2000/svg" height="186.9" width="200" version="1.1" xmlns:cc="http://creativecommons.org/ns#" xmlns:dc="http://purl.org/dc/elements/1.1/" viewBox="0 0 199.99999 186.90262">
 <g transform="translate(141 -436.81)">
  <g transform="matrix(2.3403 0 0 2.3403 57.311 -713.07)">
   <path d="m0.13623 491.92h-84.27v78.673h84.27v-78.673z" stroke="#231f2000" stroke-width=".33416" fill="#40525900"/>
   <path d="m91.42 17.023 1.7832 15.18-0.18359 0.0078-0.35742 0.01953-1.3633 0.07422c-0.28125-1.3688-1.9091-9.0666-6.2891-10.807l-0.05664-0.02148-0.0039-0.002h-12.303v44.221s7.6238 1.3905 8.125 1.4805v2.4375h-25.412l-0.0039 1.6387h26.961v-3.9395s-6.9975-1.2735-8.125-1.4785v-42.725h11.305c3.695 1.5338 5.3199 8.1651 5.7324 10.174l0.14062 0.6875 3.4785-0.18359-1.9727-16.764h-1.4551zm-40.193 4.4629-0.05664 0.02148c-4.3412 1.7188-5.8268 7.695-6.123 9.125 0 0.01-0.0059 0.02721-0.0059 0.03711l-1.8906-0.09961-0.19531 1.5879 3.4746 0.18359 0.14062-0.68945c0.2375-1.1462 1.6109-6.9112 5.5684-8.5312h11.285v-1.6348h-12.197zm25.654 14.631v3.9531s7.3164 1.2058 8.4727 1.3945l0.0039-1.5117s-7.9638-1.3144-8.4688-1.3906v-2.4453h-0.0078zm23.725 0c11.499 0.0263 17.334 3.4588 17.334 11.812 0 10.444-11.604 13.451-11.604 13.451v0.0098s14.965-0.35523 14.965 12.979c0 10.152-6.5064 15.08-17.66 15.08h-25.514-1.2383v-2.3086c-0.0075 0-0.0098 0.002-0.0098 0.002l0.002 0.68555v3.2539h27.57c11.916 0 18.479-5.644 18.479-15.896 0-3.895-1.2223-7.0617-3.6348-9.418-2.635-2.5775-6.1333-3.6335-8.707-4.0723 3.6212-1.7888 8.9766-5.6549 8.9766-12.951 0-8.6138-5.8058-12.627-18.27-12.627h-0.68945zm-2.7363 2.7852c-0.31339-0.0055-0.49219 0.0059-0.49219 0.0059-0.60625 0-1.9128-0.000234-2.6016 0.07227l-0.28906 0.03516v47.314h0.01953c0.11952 0.000323 1.1809 0.0012 1.6113 0.002v-45.736c0.71375-0.0175 2.0703-0.05469 2.0703-0.05469 0.09125-0.003 4.717-0.21281 7.8008 2.7109 1.83 1.7362 2.7836 4.248 2.8398 7.4668 0.008-0.16875 0.01-0.34328 0.01-0.51953 0-10.45-8.775-11.258-10.969-11.297zm-1.752 47.43v0.002h3.377c-1.7424 0-2.4749-0.000458-3.377-0.002zm1.7344-24.678v3.0957l0.75 0.05664c1.3762 0.10875 13.334 1.3313 13.572 10.486 0.006-0.18 0.01-0.36102 0.01-0.54102 0-10.248-13.194-11.484-14.328-11.574v-1.5234h-0.0039z" transform="translate(-124.89 477.28)" fill="#8fbce6"/>
   <path d="m91.418 17.023-46.652 0.02344-1.6152 13.523 1.8906 0.09961c0-0.01 0.0059-0.02526 0.0059-0.03516 0.29625-1.43 1.7811-7.4062 6.1211-9.125l0.05859-0.02344h12.197v0.0039 1.6309 42.574s-7.4807 1.3905-8.0645 1.4805v2.4375h1.6289 23.697 0.08594v-2.4375c-0.50125-0.09-8.125-1.4805-8.125-1.4805v-44.219-0.002h12.303l0.0039 0.002 0.05664 0.02148c4.38 1.74 6.0091 9.4379 6.2891 10.807l1.3633-0.07422 0.35742-0.01953 0.18359-0.0078-1.7832-15.18h-0.002zm-14.529 19.092v0.002 1.2422 1.2031c0.50625 0.0762 8.4688 1.3906 8.4688 1.3906v45.582s-0.0026-0.001-0.0039 0c-0.215 0.0362-7.9711 1.3852-8.4648 1.4727v0.13281 1.0684 1.2402h1.2402 25.51c11.155 0 17.664-4.9276 17.664-15.08 0-13.334-14.967-12.979-14.967-12.979v-0.01172s11.604-3.0074 11.604-13.451c0-8.3538-5.8352-11.784-17.334-11.811-0.0412-0.002-0.0812-0.002-0.125-0.002h-22.352-1.2402zm20.98 2.7871c2.1938 0.03862 10.969 0.84719 10.969 11.297 0 0.17625-0.004 0.35078-0.0117 0.51953-0.36625 9.7675-10.971 10.855-10.971 10.855v0.08008 1.5234c1.135 0.09 14.328 1.3255 14.328 11.574 0 0.17875-0.004 0.36102-0.01 0.54102-0.2175 5.5512-3.823 11.041-12.418 11.041h-0.26172c-2.5738 0-4.6183-0.0029-4.9883-0.0039h-0.01953v-47.314l0.28906-0.03516c0.68875-0.0725 1.9934-0.07227 2.5996-0.07227 0 0 0.18075-0.01138 0.49414-0.0059z" transform="translate(-124.89 477.28)" fill="#fff"/>
  </g>
 </g>
</svg>
