<?xml version="1.0" encoding="UTF-8" standalone="no"?>
<!-- Generator: Adobe Illustrator 14.0.0, SVG Export Plug-In . SVG Version: 6.00 Build 43363)  -->
<!DOCTYPE svg  PUBLIC '-//W3C//DTD SVG 1.1//EN'  'http://www.w3.org/Graphics/SVG/1.1/DTD/svg11.dtd'>
<svg id="Layer_1" style="enable-background:new 0 0 250 250" xmlns="http://www.w3.org/2000/svg" xml:space="preserve" height="250px" viewBox="0 0 250 250" width="250px" version="1.1" y="0px" x="0px" xmlns:xlink="http://www.w3.org/1999/xlink">
	<rect y=".02" width="250" height="250" fill="#40525900"/>
	<g fill="#C0111F">
		<path d="m93.208 42.21v-4.345h-0.42c-31.303 0-44.075 10.864-44.113 37.792l-0.039 6.134h-26.175l14.114 13.229h24.658l0.031-4.94c0-27.572 2.701-44.955 31.944-47.87z"/>
		<path d="m163.54 107.05l-6.919 1.953c-0.152 0.042-15.198 4.395-15.198 14.622v60.257c0 4.09 1.694 6.82 9.873 6.82h4.257c0.016-0.381 0.03-0.777 0.016-1.189v-60.246c0-12.318 17.06-17.04 17.06-17.04s-4.65-1.83-9.09-5.17z"/>
		<path d="m141.42 38.022v50.583c0 9.51 15.281 15.59 15.435 15.651l6.272 2.453c-3.915-3.037-7.562-7.21-7.562-12.455v-51.202l2.418 0.153c9.393 0.801 16.167 3.289 20.989 6.936-7.82-7.809-20.39-12.079-37.56-12.12z"/>
		<polygon points="214.08 7.833 214.08 81.792 193.1 81.792 207.96 95.864 227.54 95.864 227.54 20.406"/>
		<polygon points="166.73 227.57 72.922 227.57 88.409 242.21 178.65 242.21 178.65 206.82 166.73 195.71"/>
	</g>
	<path d="m43.701 75.356c0-29.396 15.152-42.502 49.087-42.502h5.432v55.751c0 9.563-6.927 15-11.894 17.853 5.005 2.563 11.894 7.614 11.894 17.17v59.708c0 7.751-5.34 12.374-14.282 12.374h-11.017v26.855h88.782v-26.855h-10.413c-9.873 0-14.877-3.967-14.877-11.825v-60.257c0-9.46 8.041-14.657 13.626-17.273-5.524-3.086-13.626-8.946-13.626-17.75v-55.884l2.64 0.145s2.387 0.13 2.251 0.13c32.92 0 51.811 14.881 51.811 40.836 0 0-0.016 1.488-0.03 2.96h15.982v-68.955h-186.61v68.955h21.408" fill="#fff"/>
	<path d="m196.91 232.86h-3.38v9.247h-2.305v-9.247h-3.387v-2.006h9.071v2.01m15.39 9.24h-2.297v-8.957h-0.053l-3.251 8.957h-2.22l-3.158-8.957h-0.046v8.957h-2.289v-11.253h3.967l2.625 7.347h0.053l2.725-7.347h3.944v11.25z" fill="#fff"/>
</svg>
