<?xml version="1.0" encoding="UTF-8" standalone="no"?>
<svg xmlns:rdf="http://www.w3.org/1999/02/22-rdf-syntax-ns#" xmlns="http://www.w3.org/2000/svg" xml:space="preserve" height="211.34" viewBox="0 0 250 211.3435" width="250" version="1.1" xmlns:cc="http://creativecommons.org/ns#" xmlns:dc="http://purl.org/dc/elements/1.1/"><g transform="matrix(1.25 0 0 -1.25 -1146.3 434.79)"><g transform="matrix(2.2895 0 0 2.2895 -1309.5 -337.56)"><path d="m1059.6 299.07h-86.658v-73.15h86.658v73.15z" fill="#40525900"/><path d="m1055.1 266.8-1.625 0.559-0.888 0.304 0.314 3.785 0.103 1.274-1.257-0.216-3.352-0.572-0.492 1.253-0.545 1.383-1.066-1.036c-0.019-0.019-1.666-1.624-2.536-2.465 0.157 1.582 0.544 5.599 0.548 5.646l0.155 1.62-1.506-0.609-0.685-0.275c0.069 0.323 0.135 0.642 0.199 0.959 0.4 1.993 1.404 5.49 3.299 8.157 0 0-1.208 0.291-3.069-0.247-0.525-0.15-0.04-0.008-0.056-0.013 0.616 1.468 3.361 5.235 3.361 5.235s-3.889 0.072-5.355-0.816c0.911 2.995 0.147 5.328 0.147 5.328l-3.018-3.506c-5.212-6.051-17.913-7.723-26.317-8.83-3.4-0.448-6.087-0.801-7.743-1.345-4.001-1.311-6.097-3.551-7.343-5.304l-0.799-0.335c-1.528-0.65-2.396-1.486-3.248-2.721-8.649-1.472-13.647-3.065-15.274-4.863l-0.109-0.133c-0.366-0.499-0.485-1.082-0.342-1.621-0.055-0.466 0.042-1.167 0.867-1.821l0.057-0.043c1.974-1.431 7.873-3.66 14.916-4.972 3.162-0.588 4.519-1.059 6.534-2.883 10.019-9.07 14.941-22.696 17.172-29.342l2.508 4.614c8.371 14.693 16.573 21.486 16.669 21.577l1.735 1.58 0.048-0.089 0.877-1.69 0.876 1.692 0.33 0.632 6.521-0.533 2.346-0.191-1.504 1.809-0.816 0.987 8.06 6.951 1.303 1.126z" fill="#fff"/><path d="m1000.4 271.67s-0.457 1.149 0.128 2.324c0.232 0.46 0.67 0.886 1.254 1.232 4.311 2.892 13.452-0.074 13.452-0.074-2.17 0.2-3.952 0.16-5.455-0.039 2.55-0.795 5.276-1.869 7.125-2.316 2.272-0.552 3.782-0.836 6.043-0.97l-0.073 0.891 1.255-0.216 3.35-0.572 0.496 1.253 0.544 1.383 1.064-1.036c0.024-0.019 1.668-1.624 2.537-2.464-0.156 1.581-0.543 5.598-0.546 5.645l-0.155 1.62 1.507-0.609 1.65-0.666 2.474 4.047 0.843 1.378 0.842-1.378 1.999-3.264c0.696 2.833 1.195 5.835 2.656 7.227-1.466-0.055-2.494-0.466-4.089-1.585 0.907 2.448 2.244 4.264 4.052 6.34-1.754-0.265-3.432-0.769-5.083-1.711 0.63 1.498 0.674 3.351 0.674 3.351-7.714-8.953-29.229-8.841-34.802-10.669-3.653-1.197-5.529-3.191-6.83-5.157-0.126-2.026 1.35-3.965 3.088-3.965" fill="#134a8e"/><path d="m996.18 275.2c-1.287-0.547-1.9449-1.1829-2.9109-2.7109-10.496-1.736-14.086-3.4158-15.028-4.4578-0.14-0.19-0.0788-0.27575 0.0562-0.31875 3.479 0.146 8.3578 0.31925 16.883 0.0312 0.722-0.009 1.4309-0.0225 2.1219-0.0375 0.428 0.569 1.212 1.075 2.7 1.075h0.14845 0.2907c2.77-0.038 3.2845-2.8797 6.2265-2.8797 2.929 0 3.4483 2.8206 6.1953 2.8766 0.075 0.00096 0.1583 0.002 0.2313 0.003h10.152l-0.1406 1.6859h-10.164c-2.818 0-3.3182 2.8844-6.2782 2.8844-2.917 0-3.4397-2.8494-6.1547-2.8734-2.936 0.174-4.0981 2.6359-4.3281 4.7219zm9.3594-3.1594c-0.207-0.83-0.091-1.5435-0.044-1.9125l-0.9843 0.003c-0.023 0.74 0.4181 1.5024 1.0281 1.9094zm-27.023-4.725c-0.354 0.002-0.44494-0.14075-0.0609-0.44375 1.668-1.208 7.3174-3.3934 14.248-4.6844 3.332-0.622 4.8596-1.5342 7.2516-3.2062 5.2099-3.644 12.31-13.411 16.641-26.122 8.21 15.944 17.742 23.102 18.498 23.652l-4.8828-0.39844-2.3422-0.19063 1.5031 1.8094 0.8141 0.98593-3.1532 2.7219c-1.714-2.622-3.3848-5.4628-4.1828-7.6578l3.4719 0.0156c-1.783-2.21-5.2198-5.8598-7.5328-9.9078-2.314 5.678-7.7263 12.981-17.506 16.994-2.8329 1.162-5.5078 2.7049-5.1608 4.9469-4.9 0.699-10.257 1.2641-16.331 1.4641-0.461 0.007-0.892 0.0159-1.275 0.0219z" fill="#1d2d5c"/><path d="m1051.9 271.53-4.143-0.709-0.79 2.001s-2.671-2.597-3.025-2.938c-0.23-0.219-0.488-0.342-0.706-0.342-0.346 0-0.601 0.313-0.532 1.069 0.01 0.068 0.017 0.177 0.031 0.319 0.135 1.377 0.569 5.863 0.569 5.876l-1.312-0.529-1.111-0.449-2.912 4.76h-0.001l-2.911-4.76-2.425 0.978c0.001-0.013 0.436-4.499 0.57-5.876 0.014-0.142 0.024-0.251 0.032-0.319 0.069-0.756-0.189-1.069-0.534-1.069-0.22 0-0.474 0.123-0.705 0.342-0.357 0.341-3.025 2.938-3.025 2.938l-0.789-2.001-4.141 0.709 0.372-4.553-1.611-0.554 8.794-7.587v-0.001l-1.438-1.731 0.509 0.039 2.826 0.233 3.844 0.312 0.384-0.742 0.081-0.154 0.168-0.32 0.326 0.628 0.304 0.588 7.178-0.584-1.438 1.731v0.001l8.796 7.587-1.613 0.554 0.378 4.553z" fill="#e8291c"/></g></g></svg>
